<svg xmlns="http://www.w3.org/2000/svg" width="478.62" height="225" viewBox="0 0 478.62 225"><defs><style>.a{fill:#392a1d;}.b{fill:#eba900;}.c{fill:#fff;}</style></defs><title>icon-truck</title><path d="M467.37 176.25h-3.75V135h-15.36l-3.75-37.5h-33.38V63.75h-150v112.5h-3.75a11.25 11.25 0 0 0 0 22.5h22.5a26.25 26.25 0 0 0 52.5 0h71.25a26.25 26.25 0 0 0 52.5 0h11.25a11.25 11.25 0 0 0 0-22.5zM437.72 105l3 30h-29.6v-30zm-34.1 37.5v15h-135V105h135zm-135-71.25h135V97.5h-135zm-7.5 120h-3.75a3.75 3.75 0 0 1 0-7.5h3.75zm45 26.25a18.75 18.75 0 1 1 18.75-18.75 18.77 18.77 0 0 1-18.75 18.75zm25.14-26.25a26.24 26.24 0 0 0-50.3 0h-12.34V165h135v26.25zm98.6 26.25a18.75 18.75 0 1 1 18.76-18.75 18.77 18.77 0 0 1-18.75 18.75zm26.26-26.25h-1.1a26.2 26.2 0 0 0-43.9-10.84v-37.9h45zm11.25 0h-3.75v-7.5h3.75a3.75 3.75 0 0 1 0 7.5zm0 0M306.12 187.5a11.25 11.25 0 1 0 11.25 11.25 11.27 11.27 0 0 0-11.25-11.25zm0 15a3.75 3.75 0 1 1 3.75-3.75 3.75 3.75 0 0 1-3.75 3.75zm0 0M429.87 187.5a11.25 11.25 0 1 0 11.25 11.25 11.27 11.27 0 0 0-11.25-11.25zm0 15a3.75 3.75 0 1 1 3.75-3.75 3.75 3.75 0 0 1-3.75 3.75zm0 0" class="a"/><path d="M264.87 0h138.75v7.5H264.87zM249.87 18.75h150v7.5h-150zM264.87 37.5h138.75V45H264.87z" class="b"/><path d="M7.76 190.07v33.5H0V106.32h7.76v83.74zM.28 218.44h33.27v6.46H.28zM.28 104.9h33.27v6.46H.28zM132.24 139.73v-33.5H140v117.24h-7.76v-83.74zM139.72 111.36h-33.27v-6.46h33.27zM139.72 224.9h-33.27v-6.46h33.27z" class="a"/><path d="M84.26 185.9H55.52v-6.3l10.08-10.87c1.27-1.37 2.42-2.62 3.46-3.78a31.23 31.23 0 0 0 2.66-3.37 14.57 14.57 0 0 0 1.73-3.34 10.65 10.65 0 0 0 .62-3.66 4.36 4.36 0 0 0-1.3-3.37 5 5 0 0 0-3.5-1.2 9.33 9.33 0 0 0-4.46 1.15 23.2 23.2 0 0 0-4.47 3.26l-4.92-5.82c.88-.8 1.8-1.57 2.76-2.3a18.2 18.2 0 0 1 3.16-1.95 18.6 18.6 0 0 1 3.8-1.36 19.1 19.1 0 0 1 4.67-.52 16.92 16.92 0 0 1 5.5.85 12.06 12.06 0 0 1 4.2 2.42 10.5 10.5 0 0 1 2.64 3.8 13.1 13.1 0 0 1 .92 5 13.3 13.3 0 0 1-.88 4.8 20.72 20.72 0 0 1-2.4 4.52 40.5 40.5 0 0 1-3.53 4.4q-2 2.17-4.3 4.44l-5.15 5.22v.4h17.46z" class="c"/></svg>