<svg xmlns="http://www.w3.org/2000/svg" width="480.2" height="233.4" viewBox="0 0 480.2 233.4"><defs><style>.a{fill:#392a1d;}.b{fill:#fff;}.c{fill:#eba900;}</style></defs><title>icon-package</title><path d="M7.76 198.57v33.5H0V114.82h7.76v83.74zM.28 226.94h33.27v6.46H.28zM.28 113.4h33.27v6.46H.28zM132.24 148.23v-33.5H140v117.24h-7.76v-83.74zM139.72 119.86h-33.27v-6.46h33.27zM139.72 233.4h-33.27v-6.46h33.27z" class="a"/><path d="M77.06 194.4H68v-24.8c0-.5 0-1.1 0-1.82s0-1.45.06-2.22 0-1.55.08-2.33.06-1.5.08-2.14c-.1.1-.27.28-.5.52l-.8.77c-.28.28-.6.56-.9.86s-.62.55-.9.8l-4.93 4-4.4-5.46 13.8-11h7.44z" class="b"/><path d="M462.2 123.75H262.12l-18 45h16.8v63.75h202.5v-63.75h16.78zm-207 37.5l12-30h119.42l-12 30zM388.4 225h-120v-56.25h111.3l8.7-21.78zm67.5 0h-60v-78l8.72 21.78h51.3zm-46.2-63.75l-12-30h59.42l12 30zm0 0" class="a"/><path d="M362.12 116.25l-41.2-33.75h18.74V0h45v82.5h18.75zm0 0" class="c"/></svg>