<svg xmlns="http://www.w3.org/2000/svg" width="478.62" height="225" viewBox="0 0 478.62 225"><defs><style>.a{fill:#392a1d;}.b{fill:#eba900;}.c{fill:#fff;}</style></defs><title>truck-icon-v3</title><path class="a" d="M929.25,448.35H925.5V407.1H910.14l-3.75-37.5H873V335.85H723v112.5h-3.75a11.25,11.25,0,0,0,0,22.5h22.5a26.25,26.25,0,0,0,52.5,0H865.5a26.25,26.25,0,0,0,52.5,0h11.25a11.25,11.25,0,0,0,0-22.5ZM899.6,377.1l3,30H873v-30Zm-34.1,37.5v15h-135V377.1h135Zm-135-71.25h135V369.6h-135Zm-7.5,120h-3.75a3.75,3.75,0,0,1,0-7.5H723Zm45,26.25a18.75,18.75,0,1,1,18.75-18.75A18.77,18.77,0,0,1,768,489.6Zm25.14-26.25a26.24,26.24,0,0,0-50.29,0H730.5V437.1h135v26.25Zm98.61,26.25a18.75,18.75,0,1,1,18.75-18.75,18.77,18.77,0,0,1-18.75,18.75ZM918,463.35h-1.11A26.21,26.21,0,0,0,873,452.51V414.6h45Zm11.25,0H925.5v-7.5h3.75a3.75,3.75,0,0,1,0,7.5Zm0,0" transform="translate(-461.88 -272.1)"/><path class="a" d="M768,459.6a11.25,11.25,0,1,0,11.25,11.25A11.27,11.27,0,0,0,768,459.6Zm0,15a3.75,3.75,0,1,1,3.75-3.75A3.75,3.75,0,0,1,768,474.6Zm0,0" transform="translate(-461.88 -272.1)"/><path class="a" d="M891.75,459.6A11.25,11.25,0,1,0,903,470.85a11.27,11.27,0,0,0-11.25-11.25Zm0,15a3.75,3.75,0,1,1,3.75-3.75,3.75,3.75,0,0,1-3.75,3.75Zm0,0" transform="translate(-461.88 -272.1)"/><rect class="b" x="264.87" width="138.75" height="7.5"/><rect class="b" x="249.87" y="18.75" width="150" height="7.5"/><rect class="b" x="264.87" y="37.5" width="138.75" height="7.5"/><polygon class="a" points="7.76 190.07 7.76 223.56 0 223.56 0 106.33 7.76 106.33 7.76 190.07"/><rect class="a" x="0.28" y="218.44" width="33.27" height="6.46"/><rect class="a" x="0.28" y="104.9" width="33.27" height="6.46"/><polygon class="a" points="132.24 139.73 132.24 106.24 140 106.24 140 223.47 132.24 223.47 132.24 139.73"/><rect class="a" x="568.33" y="377" width="33.27" height="6.46" transform="translate(708.05 488.36) rotate(-180)"/><rect class="a" x="568.33" y="490.54" width="33.27" height="6.46" transform="translate(708.05 715.44) rotate(-180)"/><path class="c" d="M546.14,458H517.4v-6.3l10.08-10.87c1.27-1.37,2.42-2.62,3.46-3.78a31.23,31.23,0,0,0,2.66-3.37,14.57,14.57,0,0,0,1.73-3.34,10.65,10.65,0,0,0,.62-3.66,4.36,4.36,0,0,0-1.31-3.37,5,5,0,0,0-3.5-1.2,9.33,9.33,0,0,0-4.45,1.14,23.19,23.19,0,0,0-4.48,3.26l-4.92-5.83c.87-.8,1.79-1.57,2.75-2.3a18.21,18.21,0,0,1,3.16-1.95,18.6,18.6,0,0,1,3.81-1.36,19.09,19.09,0,0,1,4.66-.52,16.92,16.92,0,0,1,5.52.85,12.06,12.06,0,0,1,4.18,2.42,10.51,10.51,0,0,1,2.65,3.79,13.11,13.11,0,0,1,.92,5,13.29,13.29,0,0,1-.88,4.82,20.72,20.72,0,0,1-2.4,4.51,40.49,40.49,0,0,1-3.53,4.4q-2,2.17-4.29,4.44L528.68,450v.41h17.46Z" transform="translate(-461.88 -272.1)"/></svg>