<svg xmlns="http://www.w3.org/2000/svg" width="479.05" height="236.77" viewBox="0 0 479.05 236.77"><defs><style>.a{fill:#392a1d;}.b{fill:#fff;}.c{fill:#eba900;}</style></defs><title>icon-chart</title><path d="M7.76 201.94v33.5H0V118.2h7.76v83.74zM.28 230.3h33.27v6.47H.28zM.28 116.78h33.27v6.46H.28zM132.24 151.6v-33.5H140v117.24h-7.76V151.6zM139.72 123.24h-33.27v-6.46h33.27zM139.72 236.77h-33.27v-6.46h33.27z" class="a"/><path d="M84.9 188.9h-5.15v8.88h-8.82v-8.88h-17.7v-6.3l18.2-27.65h8.32v26.92h5.16zm-14-7v-7.26c0-.26 0-.62 0-1.1s0-1 0-1.63 0-1.22.08-1.86.06-1.26.1-1.85.05-1.1.08-1.55 0-.75.07-.95h-.26c-.35.82-.75 1.7-1.2 2.6a28.8 28.8 0 0 1-1.5 2.76l-7.14 10.84z" class="b"/><path d="M377.96 13.07l5.3 53L370 52.82l-58.33 58.36-31.82-31.82 58.34-58.33-13.27-13.25zm0 0" class="c"/><path d="M439.37 41.66h19.84v194.47h-19.83z" class="a"/><path d="M403.6 67.46h19.85v168.66H403.6z" class="c"/><path d="M328.15 136.92H348v99.2h-19.85z" class="a"/><path d="M459.2 0h19.85v236.12H459.2z" class="c"/><path d="M383.76 87.3h19.85v148.82h-19.84z" class="a"/><path d="M348 117.07h19.84v119.06H348z" class="c"/></svg>