<svg xmlns="http://www.w3.org/2000/svg" width="91.53" height="80" viewBox="0 0 91.53 80"><defs><style>.a{fill:#392a1d;}.b{fill:#1cbcaf;}</style></defs><title>quote-header-1</title><polygon class="a" points="4 57.01 4 79.66 0 79.66 0 0.41 4 0.41 4 57.01"/><rect class="a" x="0.53" y="76.76" width="15" height="3.24"/><rect class="a" x="0.53" width="15" height="3.24"/><polygon class="a" points="87.53 22.99 87.53 0.34 91.53 0.34 91.53 79.59 87.53 79.59 87.53 22.99"/><rect class="a" x="561.76" y="396" width="15" height="3.24" transform="translate(652.76 399.24) rotate(-180)"/><rect class="a" x="561.76" y="472.76" width="15" height="3.24" transform="translate(652.76 552.76) rotate(-180)"/><path class="b" d="M511.14,439.09l9.88-21.3h10.14l-3.67,20.93V451H511.14Zm20.75,0,9.89-21.3h10.13l-3.66,20.93V451H531.89Z" transform="translate(-485.76 -396)"/></svg>