<svg xmlns="http://www.w3.org/2000/svg" width="480.2" height="233.4" viewBox="0 0 480.2 233.4"><defs><style>.a{fill:#392a1d;}.b{fill:#fff;}.c{fill:#eba900;}</style></defs><title>package-icon-v1</title><path class="a" d="M768,459.6a11.25,11.25,0,1,0,11.25,11.25A11.27,11.27,0,0,0,768,459.6Zm0,15a3.75,3.75,0,1,1,3.75-3.75A3.75,3.75,0,0,1,768,474.6Zm0,0" transform="translate(-461.88 -263.6)"/><path class="a" d="M891.75,459.6A11.25,11.25,0,1,0,903,470.85a11.27,11.27,0,0,0-11.25-11.25Zm0,15a3.75,3.75,0,1,1,3.75-3.75,3.75,3.75,0,0,1-3.75,3.75Zm0,0" transform="translate(-461.88 -263.6)"/><polygon class="a" points="7.76 198.57 7.76 232.06 0 232.06 0 114.83 7.76 114.83 7.76 198.57"/><rect class="a" x="0.28" y="226.94" width="33.27" height="6.46"/><rect class="a" x="0.28" y="113.4" width="33.27" height="6.46"/><polygon class="a" points="132.24 148.23 132.24 114.74 140 114.74 140 231.97 132.24 231.97 132.24 148.23"/><rect class="a" x="568.33" y="377" width="33.27" height="6.46" transform="translate(708.05 496.86) rotate(-180)"/><rect class="a" x="568.33" y="490.54" width="33.27" height="6.46" transform="translate(708.05 723.94) rotate(-180)"/><path class="b" d="M538.94,458h-9.06V433.21c0-.5,0-1.11,0-1.83s0-1.45.06-2.22,0-1.55.08-2.33.06-1.5.08-2.14c-.1.12-.27.29-.5.53l-.79.77c-.29.29-.6.57-.91.87s-.62.55-.91.79l-4.92,4-4.39-5.45,13.79-11h7.45Z" transform="translate(-461.88 -263.6)"/><path class="a" d="M924.08,387.35H724l-18,45h16.79V496.1h202.5V432.35h16.79Zm-207,37.5,12-30H848.5l-12,30ZM850.29,488.6h-120V432.35H841.58l8.71-21.78Zm67.5,0h-60v-78l8.71,21.78h51.29Zm-46.21-63.75-12-30H919l12,30Zm0,0" transform="translate(-461.88 -263.6)"/><path class="c" d="M824,379.85,782.79,346.1h18.75V263.6h45v82.5h18.75Zm0,0" transform="translate(-461.88 -263.6)"/></svg>