<svg xmlns="http://www.w3.org/2000/svg" width="480.02" height="236.71" viewBox="0 0 480.02 236.71"><defs><style>.a{fill:#392a1d;}.b{fill:#fff;}.c{fill:#eba900;}</style></defs><title>icon-shopping</title><path d="M7.76 201.88v33.5H0V118.13h7.76v83.74zM.28 230.25h33.27v6.46H.28zM.28 116.7h33.27v6.47H.28zM132.24 151.54v-33.5H140V235.3h-7.76v-83.74zM139.72 123.17h-33.27v-6.46h33.27zM139.72 236.7h-33.27v-6.45h33.27z" class="a"/><path d="M82.6 164.46a10.56 10.56 0 0 1-.73 4 9.85 9.85 0 0 1-2 3.1 11 11 0 0 1-2.93 2.23 15.44 15.44 0 0 1-3.65 1.35v.18q5.18.64 7.85 3.15a8.84 8.84 0 0 1 2.66 6.75 13.1 13.1 0 0 1-1 5.2 11 11 0 0 1-3.1 4.15 15 15 0 0 1-5.27 2.73 25.25 25.25 0 0 1-7.48 1 34.5 34.5 0 0 1-6.5-.57 25.57 25.57 0 0 1-5.7-1.74v-7.7a21.1 21.1 0 0 0 2.8 1.22 30.56 30.56 0 0 0 2.92.9 23.58 23.58 0 0 0 2.9.53 21.4 21.4 0 0 0 2.67.18 15.87 15.87 0 0 0 4.2-.47 6.84 6.84 0 0 0 2.65-1.32 4.75 4.75 0 0 0 1.42-2 7.7 7.7 0 0 0 .42-2.6 5.25 5.25 0 0 0-.54-2.38 4.6 4.6 0 0 0-1.76-1.8 9.86 9.86 0 0 0-3.18-1.17 24.36 24.36 0 0 0-4.83-.42h-3.05v-6.36h3a17.57 17.57 0 0 0 4.48-.48 8 8 0 0 0 2.86-1.32 4.68 4.68 0 0 0 1.5-1.95 6.44 6.44 0 0 0 .45-2.37 4.6 4.6 0 0 0-1.42-3.57 6.57 6.57 0 0 0-4.5-1.3 11.44 11.44 0 0 0-2.62.3 14.25 14.25 0 0 0-2.26.7 12.93 12.93 0 0 0-1.9.93c-.58.34-1.1.67-1.57 1l-4.57-6a20.87 20.87 0 0 1 5.83-3 22.8 22.8 0 0 1 3.66-.9 25.33 25.33 0 0 1 4.2-.32 22.4 22.4 0 0 1 5.75.7 13.72 13.72 0 0 1 4.44 2 9.16 9.16 0 0 1 2.86 3.2 9 9 0 0 1 1.03 4.22z" class="b"/><path d="M357.72 15.24h30.48v7.62h-30.48zM334.86 15.24h7.62v7.62h-7.62zM361.53 198.1a13.34 13.34 0 1 0 13.33 13.33 13.36 13.36 0 0 0-13.33-13.34zm0 19.04a5.72 5.72 0 1 1 5.7-5.7 5.72 5.72 0 0 1-5.7 5.7zm0 0M475.45 140.95l4.57-45.7h-46.1v-76.2a19.07 19.07 0 0 0-19-19H308.18a19.07 19.07 0 0 0-19.06 19v198.1a19.08 19.08 0 0 0 19.05 19.04h106.66a19.08 19.08 0 0 0 19-19.06V156.2h15.94a11.4 11.4 0 1 0 14.53-14.55v-.7zm-25.6 7.62h-31.9a11.4 11.4 0 0 0-6.9-6.92v-.7h45.7v.7a11.4 11.4 0 0 0-6.9 6.92zm-38.8 3.8a3.8 3.8 0 1 1-3.8-3.8 3.82 3.82 0 0 1 3.8 3.8zM308.2 7.63h106.66a11.44 11.44 0 0 1 11.43 11.43v11.43H296.76V19.05A11.43 11.43 0 0 1 308.2 7.62zm106.66 221H308.2a11.44 11.44 0 0 1-11.43-11.43v-22.92H426.3v22.86a11.45 11.45 0 0 1-11.44 11.43zm11.43-41.9H296.76V38.08H426.3v57.14H399.6v7.62h72l-3.05 30.47h-69.4l-7.62-60.95h-14.78V80h8.06l7.62 60.95h11v.7A11.4 11.4 0 1 0 418 156.2h8.3zm34.27-30.5a3.8 3.8 0 1 1 3.8-3.8 3.8 3.8 0 0 1-3.8 3.8zm0 0" class="a"/><path d="M403.43 114.3h60.95v7.6h-60.95zM323.43 87.62h53.34v7.62h-53.34zM304.4 87.62h11.42v7.62H304.4zM315.82 106.67h64.76v7.62h-64.76zM346.3 125.7h38.08v7.63h-38.1zM331.06 125.7h7.62v7.63h-7.62z" class="a"/><path d="M312 95.24h64.77v7.62H312zM323.43 114.3h57.15v7.6h-57.15zM338.67 133.33h45.7v7.62h-45.7z" class="c"/></svg>