<svg xmlns="http://www.w3.org/2000/svg" viewBox="0 0 700 50" enable-background="new 0 0 700 50"><style type="text/css">.st0{fill:#39291D;}</style><path d="M26.9 37.5V26h3.8l.6-4.4h-4.4v-2.8c0-1.3.4-2.1 2.2-2.1h2.4v-4c-.4-.1-1.8-.1-3.4-.1-3.4 0-5.7 2.1-5.7 5.9v3.3h-3.8v4.4h3.8v11.4l4.5-.1zM59.8 34.7s-.2 0 1.1.9 4.8 2 8.3 2c11.6 0 17.9-9.6 17.9-17.9 0-.2 0-.5 0-.7 0 0 0-.1.6-.6s1.7-1.6 2.6-2.8c-1.1.5-2.3.9-3.7 1 1.3-.7 2.3-2.1 2.8-3.5-1.2.7-2.6 1.2-4 1.6-1.1-1.2-2.8-2-4.6-2-3.5 0-6.3 2.8-6.3 6.3 0 .5 0 1 .1 1.5-5.2-.2-9.9-2.8-12.9-6.6-.5 1-.9 2-.9 3.2 0 2.2 1.1 4.1 2.8 5.2-1 0-2-.4-2.8-.7 0 3 2.2 5.6 3.7 5.9 0 0 1.5.2 1.2.4-.2.1-.9.1-1.3.1s-.9 0-1-.1c0 0-.2 0 .2 1.2s2.7 3 4.1 3c0 0 1.3 0 .2.9-1.3 1.1-4 2.1-7 2.1-.4-.3-.9-.3-1.1-.4M105.3 24.4c.1-6.5 6-12.1 12.5-11.9 3.1-.1 6 1.2 8.4 3.1-1 1.2-2.1 2.2-3.1 3.3-2.9-2-6.9-2.5-9.8-.3-4 2.9-4.3 9.5-.4 12.5 3.8 3.5 11.1 1.7 12.1-3.5-2.4 0-4.8 0-7.2-.1 0-1.4 0-2.9 0-4.3 4 0 8 0 12 0 .3 3.4-.3 6.9-2.2 9.7-3.1 4.4-9.4 5.6-14.2 3.8-5-1.9-8.5-7-8.1-12.3M137.7 19.7h3.5c0 1.2 0 2.4 0 3.5 1.2 0 2.4 0 3.5 0v3.5c-1.2 0-2.4 0-3.5 0 0 1.2 0 2.4 0 3.5h-3.5c0-1.2 0-2.4 0-3.5-1.2 0-2.4 0-3.5 0v-3.5c1.2 0 2.4 0 3.5 0 0-1.2 0-2.3 0-3.5" class="st0"/><path d="M242.4 17.9s-.4-2.5-1.4-3.5c-1.3-1.4-2.8-1.4-3.5-1.6-4.9-.4-12.4-.4-12.4-.4s-7.4 0-12.4.4c-.6.1-2.2.1-3.5 1.6-1 1-1.4 3.5-1.4 3.5s-.4 2.8-.4 5.7v2.7c0 2.8.4 5.7.4 5.7s.4 2.5 1.4 3.5c1.3 1.4 3.1 1.3 3.9 1.6 2.8.3 12 .4 12 .4s7.4 0 12.4-.4c.6-.1 2.2-.1 3.5-1.6 1-1 1.4-3.5 1.4-3.5s.4-2.8.4-5.7v-2.6c-.1-2.9-.4-5.8-.4-5.8zm-21 11.8v-10l9.6 4.9-9.6 5.1zM275 12.5c-6.8 0-12.4 5.6-12.4 12.4 0 5.1 3 9.4 7.4 11.3-.1-.9 0-2 .2-2.8.3-1 1.6-6.7 1.6-6.7s-.4-.8-.4-2c0-1.9 1.1-3.2 2.4-3.2 1.2 0 1.7.9 1.7 1.9 0 1.2-.7 2.8-1.2 4.4-.4 1.3.7 2.4 2 2.4 2.4 0 3.9-3 3.9-6.6 0-2.7-1.9-4.8-5.1-4.8-3.8 0-6.1 2.8-6.1 5.9 0 1.1.4 1.9.8 2.4.3.3.3.4.2.7-.1.3-.2.8-.3 1-.1.4-.4.4-.6.4-1.8-.7-2.6-2.6-2.6-4.7 0-3.5 3-7.8 8.9-7.8 4.7 0 7.9 3.5 7.9 7.2 0 4.9-2.7 8.5-6.7 8.5-1.3 0-2.6-.7-3-1.6 0 0-.7 2.8-.9 3.5-.3 1-.8 2-1.2 2.7 1.2.4 2.3.5 3.5.5 6.8 0 12.4-5.6 12.4-12.4.1-7-5.5-12.6-12.4-12.6zM325 14.7c3.3 0 3.7 0 5.1.1 1.2.1 1.9.3 2.3.4.6.3 1 .5 1.5.9.4.4.7.9.9 1.5.2.4.3 1.1.4 2.3.1 1.3.1 1.7.1 5.1s0 3.7-.1 5.1c-.1 1.2-.3 1.9-.4 2.3-.3.6-.5 1-.9 1.5-.4.4-.9.7-1.5.9-.4.2-1.1.3-2.3.4-1.3.1-1.7.1-5.1.1s-3.7 0-5.1-.1c-1.2-.1-1.9-.3-2.3-.4-.6-.3-1-.5-1.5-.9-.4-.4-.7-.9-.9-1.5-.2-.4-.3-1.1-.4-2.3-.1-1.3-.1-1.7-.1-5.1s0-3.7.1-5.1c.1-1.2.3-1.9.4-2.3.3-.6.5-1 .9-1.5.4-.4.9-.7 1.5-.9.4-.2 1.1-.3 2.3-.4 1.3-.1 1.7-.1 5.1-.1m0-2.2c-3.4 0-3.8 0-5.1.1-1.3.1-2.2.3-3.1.6-.8.3-1.5.8-2.1 1.5-.7.7-1.1 1.4-1.5 2.1-.3.8-.5 1.7-.6 3.1s-.1 1.8-.1 5.2 0 3.8.1 5.1.3 2.2.6 3.1c.3.9.8 1.5 1.5 2.1.7.7 1.4 1.1 2.1 1.5.8.3 1.7.5 3.1.6 1.3.1 1.7.1 5.1.1s3.8 0 5.1-.1c1.3-.1 2.2-.3 3.1-.6.8-.3 1.5-.8 2.1-1.5.7-.7 1.1-1.4 1.5-2.1.3-.8.5-1.7.6-3.1.1-1.3.1-1.7.1-5.1s0-3.8-.1-5.1c-.1-1.3-.3-2.2-.6-3.1-.3-.8-.8-1.5-1.5-2.1s-1.4-1.1-2.1-1.5c-.8-.3-1.7-.5-3.1-.6-1.3-.2-1.7-.2-5.1-.2zM325 18.6c-3.5 0-6.4 2.8-6.4 6.4s2.8 6.4 6.4 6.4 6.4-2.8 6.4-6.4-2.9-6.4-6.4-6.4zm0 10.6c-2.3 0-4.2-1.9-4.2-4.2s1.9-4.2 4.2-4.2 4.2 1.9 4.2 4.2c-.1 2.3-1.9 4.2-4.2 4.2z" class="st0"/><circle cx="331.6" cy="18.3" r="1.5" class="st0"/><path d="M181.3 20.4c-2.5 0-4.2 1.4-4.9 2.7h-.1v-2.3h-5v16.7h5.2v-8.3c0-2.2.4-4.3 3.1-4.3s2.7 2.5 2.7 4.4v8.1h5.2v-9.2c0-4.4-.9-7.8-6.2-7.8z" class="st0"/><circle cx="165.5" cy="15.5" r="3" class="st0"/><path d="M162.9 20.8h5.2v16.7h-5.2z" class="st0"/><path d="M376.9 37.5V26h3.8l.6-4.4h-4.4v-2.8c0-1.3.4-2.1 2.2-2.1h2.4v-4c-.4-.1-1.8-.1-3.4-.1-3.4 0-5.7 2.1-5.7 5.9v3.3h-3.8v4.4h3.8v11.4l4.5-.1zM409.8 34.7s-.2 0 1.1.9 4.8 2 8.3 2c11.6 0 17.9-9.6 17.9-17.9 0-.2 0-.5 0-.7 0 0 0-.1.6-.6s1.7-1.6 2.6-2.8c-1.1.5-2.3.9-3.7 1 1.3-.7 2.3-2.1 2.8-3.5-1.2.7-2.6 1.2-4 1.6-1.1-1.2-2.8-2-4.6-2-3.5 0-6.3 2.8-6.3 6.3 0 .5 0 1 .1 1.5-5.2-.2-9.9-2.8-12.9-6.6-.5 1-.9 2-.9 3.2 0 2.2 1.1 4.1 2.8 5.2-1 0-2-.4-2.8-.7 0 3 2.2 5.6 3.7 5.9 0 0 1.5.2 1.2.4-.2.1-.9.1-1.3.1s-.9 0-1-.1c0 0-.2 0 .2 1.2s2.7 3 4.1 3c0 0 1.3 0 .2.9-1.3 1.1-4 2.1-7 2.1-.4-.3-.9-.3-1.1-.4M455.3 24.4c.1-6.5 6-12.1 12.5-11.9 3.1-.1 6 1.2 8.4 3.1-1 1.2-2.1 2.2-3.1 3.3-2.9-2-6.9-2.5-9.8-.3-4 2.9-4.3 9.5-.4 12.5 3.8 3.5 11.1 1.7 12.1-3.5-2.4 0-4.8 0-7.2-.1 0-1.4 0-2.9 0-4.3 4 0 8 0 12 0 .3 3.4-.3 6.9-2.2 9.7-3.1 4.4-9.4 5.6-14.2 3.8-5-1.9-8.5-7-8.1-12.3M487.7 19.7h3.5c0 1.2 0 2.4 0 3.5 1.2 0 2.4 0 3.5 0v3.5c-1.2 0-2.4 0-3.5 0 0 1.2 0 2.4 0 3.5h-3.5c0-1.2 0-2.4 0-3.5-1.2 0-2.4 0-3.5 0v-3.5c1.2 0 2.4 0 3.5 0 0-1.2 0-2.3 0-3.5"/><path d="M592.4 17.9s-.4-2.5-1.4-3.5c-1.3-1.4-2.8-1.4-3.5-1.6-4.9-.4-12.4-.4-12.4-.4s-7.4 0-12.4.4c-.6.1-2.2.1-3.5 1.6-1 1-1.4 3.5-1.4 3.5s-.4 2.8-.4 5.7v2.7c0 2.8.4 5.7.4 5.7s.4 2.5 1.4 3.5c1.3 1.4 3.1 1.3 3.9 1.6 2.8.3 12 .4 12 .4s7.4 0 12.4-.4c.6-.1 2.2-.1 3.5-1.6 1-1 1.4-3.5 1.4-3.5s.4-2.8.4-5.7v-2.6c-.1-2.9-.4-5.8-.4-5.8zm-21 11.8v-10l9.6 4.9-9.6 5.1zM625 12.5c-6.8 0-12.4 5.6-12.4 12.4 0 5.1 3 9.4 7.4 11.3-.1-.9 0-2 .2-2.8.3-1 1.6-6.7 1.6-6.7s-.4-.8-.4-2c0-1.9 1.1-3.2 2.4-3.2 1.2 0 1.7.9 1.7 1.9 0 1.2-.7 2.8-1.2 4.4-.4 1.3.7 2.4 2 2.4 2.4 0 3.9-3 3.9-6.6 0-2.7-1.9-4.8-5.1-4.8-3.8 0-6.1 2.8-6.1 5.9 0 1.1.4 1.9.8 2.4.3.3.3.4.2.7-.1.3-.2.8-.3 1-.1.4-.4.4-.6.4-1.8-.7-2.6-2.6-2.6-4.7 0-3.5 3-7.8 8.9-7.8 4.7 0 7.9 3.5 7.9 7.2 0 4.9-2.7 8.5-6.7 8.5-1.3 0-2.6-.7-3-1.6 0 0-.7 2.8-.9 3.5-.3 1-.8 2-1.2 2.7 1.2.4 2.3.5 3.5.5 6.8 0 12.4-5.6 12.4-12.4.1-7-5.5-12.6-12.4-12.6zM675 14.7c3.3 0 3.7 0 5.1.1 1.2.1 1.9.3 2.3.4.6.3 1 .5 1.5.9.4.4.7.9.9 1.5.2.4.3 1.1.4 2.3.1 1.3.1 1.7.1 5.1s0 3.7-.1 5.1c-.1 1.2-.3 1.9-.4 2.3-.3.6-.5 1-.9 1.5-.4.4-.9.7-1.5.9-.4.2-1.1.3-2.3.4-1.3.1-1.7.1-5.1.1s-3.7 0-5.1-.1c-1.2-.1-1.9-.3-2.3-.4-.6-.3-1-.5-1.5-.9-.4-.4-.7-.9-.9-1.5-.2-.4-.3-1.1-.4-2.3-.1-1.3-.1-1.7-.1-5.1s0-3.7.1-5.1c.1-1.2.3-1.9.4-2.3.3-.6.5-1 .9-1.5.4-.4.9-.7 1.5-.9.4-.2 1.1-.3 2.3-.4 1.3-.1 1.7-.1 5.1-.1m0-2.2c-3.4 0-3.8 0-5.1.1s-2.2.3-3.1.6c-.8.3-1.5.8-2.1 1.5-.7.7-1.1 1.4-1.5 2.1-.3.8-.5 1.7-.6 3.1s-.1 1.8-.1 5.2 0 3.8.1 5.1c.1 1.3.3 2.2.6 3.1s.8 1.5 1.5 2.1c.7.7 1.4 1.1 2.1 1.5.8.3 1.7.5 3.1.6 1.3.1 1.7.1 5.1.1s3.8 0 5.1-.1 2.2-.3 3.1-.6c.8-.3 1.5-.8 2.1-1.5.7-.7 1.1-1.4 1.5-2.1.3-.8.5-1.7.6-3.1.1-1.3.1-1.7.1-5.1s0-3.8-.1-5.1c-.1-1.3-.3-2.2-.6-3.1-.3-.8-.8-1.5-1.5-2.1-.7-.7-1.4-1.1-2.1-1.5-.8-.3-1.7-.5-3.1-.6-1.3-.2-1.7-.2-5.1-.2zM675 18.6c-3.5 0-6.4 2.8-6.4 6.4s2.8 6.4 6.4 6.4 6.4-2.8 6.4-6.4-2.9-6.4-6.4-6.4zm0 10.6c-2.3 0-4.2-1.9-4.2-4.2s1.9-4.2 4.2-4.2 4.2 1.9 4.2 4.2c-.1 2.3-1.9 4.2-4.2 4.2z"/><circle cx="681.6" cy="18.3" r="1.5"/><path d="M531.3 20.4c-2.5 0-4.2 1.4-4.9 2.7h-.1v-2.3h-5v16.7h5.2v-8.3c0-2.2.4-4.3 3.1-4.3s2.7 2.5 2.7 4.4v8.1h5.2v-9.2c0-4.4-.9-7.8-6.2-7.8z"/><circle cx="515.5" cy="15.5" r="3"/><path d="M512.9 20.8h5.2v16.7h-5.2z"/></svg>