<svg xmlns="http://www.w3.org/2000/svg" width="666" height="433" viewBox="0 0 666 433"><defs><style>.a,.f,.g,.h,.i{fill:none;}.b{fill:#ff4713;}.c,.j{fill:#00c4b3;}.d{fill:#3a2b1e;}.e{fill:#eba900;}.f,.g,.h,.i,.j{stroke:#3a2b1e;}.f,.g,.h,.i,.j,.m,.n,.o{stroke-miterlimit:10;}.f{stroke-width:0.89px;}.g{stroke-width:1.78px;}.h{stroke-width:0.47px;}.i{stroke-width:0.67px;}.j{stroke-width:1.58px;}.k{fill:#010101;opacity:0.2;}.k,.l{isolation:isolate;}.l,.n{fill:#fff;}.l{opacity:0.1;}.m{fill:#00619d;}.m,.n,.o{stroke:#414042;stroke-width:1.05px;}.o{fill:#f47b20;}.p{fill:url(#a);}</style><pattern id="a" width="165.87" height="86.32" patternTransform="matrix(1 0 0 -1 17.25 812.69)" patternUnits="userSpaceOnUse"><path d="M0 0h165.87v86.32H0zM0 0h165.87v86.32H0z" class="a"/><path d="M145.85 38.92l1.5-3.4 1.3.58-1.5 3.4zM156.1 14.2a.42.42 0 0 1-.55.23l-.65-.28-7.62 17.3 4.42 2 7.62-17.3-2.2-1a.43.43 0 0 1-.23-.57z" class="b"/><path d="M147.3 34.58l2.08.9 1.17.53.8-1.8-4.43-1.96-.8 1.82z" class="c"/><path d="M145.12 39.52l2.08.92a.42.42 0 0 0 .55-.2l1.66-3.76 1.2.5a.44.44 0 0 0 .3 0 .4.4 0 0 0 .25-.22l1-2.25a2.14 2.14 0 0 0 2.4-1.2l3.3-7.5a.43.43 0 0 0-.22-.56.38.38 0 0 0-.33 0 .37.37 0 0 0-.23.23l-3.3 7.48a1.27 1.27 0 0 1-1.26.76l7.77-17.62V16l1-5.78a.44.44 0 0 0-.25-.47l-.15-.06.4-.94a1.26 1.26 0 0 0-.64-1.66 1.24 1.24 0 0 0-1 0 1.2 1.2 0 0 0-.7.66l-.4.93-.16-.07a.44.44 0 0 0-.32 0 .45.45 0 0 0-.2.14l-3.53 4.6-9.1 20.63a.42.42 0 0 0 .2.56l1.18.52-1.6 3.8a.42.42 0 0 0 .2.54zm15.2-31.7a.38.38 0 0 1 .2.23.42.42 0 0 1 0 .3l-.4.94-.75-.3.4-.93a.4.4 0 0 1 .23-.22.42.42 0 0 1 .3 0zm.07 2.53l-.85 4.9-2.1-.9a.44.44 0 0 0-.33 0 .45.45 0 0 0-.24.22.43.43 0 0 0 .22.56l2.2 1-7.6 17.32-4.43-2 7.62-17.3.64.27a.42.42 0 0 0 .6-.14.42.42 0 0 0-.15-.6h-.12l-.54-.23 3-3.94zm-13.48 21.9l4.43 1.94-.8 1.8-4.43-1.94zm1.72 3.85l-1.5 3.4-1.3-.58 1.5-3.4z" class="d"/><path d="M159.37 9l.74.32.42-.93a.42.42 0 0 0 0-.32.38.38 0 0 0-.2-.22.42.42 0 0 0-.32 0 .4.4 0 0 0-.22.22z" class="c"/><path d="M155.34 13.4l.54.25a.42.42 0 0 1 .22.55l.78.35a.45.45 0 0 1 .24-.23.44.44 0 0 1 .32 0l2.1.92.85-4.9-2-.9z" class="e"/><path d="M108.72 67.88a1.8 1.8 0 0 1 0 2.56h14a1.8 1.8 0 0 1 0-2.56z" class="b"/><path d="M122.74 67.88V50.54a1.38 1.38 0 0 0-1.38-1.38H110.1a1.38 1.38 0 0 0-1.38 1.38v17.34zM121.16 77.07H110.3a1.58 1.58 0 0 1-1.58-1.58v-5h14v5a1.6 1.6 0 0 1-1.56 1.57z" class="c"/><path d="M111.5 61.2v6.68h-2.78V50.56a1.38 1.38 0 0 1 1.38-1.38h5.84c-3.85 1.43-4.4 9.04-4.45 12.03zM113.07 77.07a1.58 1.58 0 0 1-1.58-1.58v-5h-2.78v5a1.58 1.58 0 0 0 1.58 1.57h2.77z" class="e"/><path d="M119.2 79h-6.93a1.32 1.32 0 0 1-1.27-1.3v-.63h9.56v.64a1.32 1.32 0 0 1-1.32 1.3z" class="c"/><path d="M115.14 79h-2.87a1.32 1.32 0 0 1-1.27-1.3v-.63h2.87v.64a1.32 1.32 0 0 0 1.27 1.3z" class="e"/><path d="M113.9 79.03h3.64v3.63h-3.63z" class="b"/><path d="M113.9 79.03h1.83v3.63h-1.82z" class="e"/><path d="M117.35 60.32l-1.62 1.62-1.62-1.62a2.3 2.3 0 0 1 0-3.24 2.3 2.3 0 0 1 3.25 0 2.3 2.3 0 0 1 0 3.24z" class="b"/><path d="M123.25 75.5v-5a.5.5 0 0 0-.15-.37 1.32 1.32 0 0 1 0-1.86.5.5 0 0 0 .15-.36V50.55a1.9 1.9 0 0 0-1.9-1.9H110.1a1.9 1.9 0 0 0-1.9 1.9v3.27a.52.52 0 0 0 1 0v-3.26a.87.87 0 0 1 .86-.87h11.27a.87.87 0 0 1 .87.87v16.78h-2.9a.5.5 0 0 0-.2 1 .67.67 0 0 0 .2 0h2.5a2.45 2.45 0 0 0 0 1.56h-12.16a2.45 2.45 0 0 0 0-1.56h8a.5.5 0 1 0 .2-1h-8.58V55.65a.52.52 0 0 0-1 0v12.23a.5.5 0 0 0 .15.36 1.32 1.32 0 0 1 0 1.86.5.5 0 0 0-.14.36v5a2.1 2.1 0 0 0 2.1 2.1h.12v.15a1.85 1.85 0 0 0 1.84 1.84h1.13v.78h-.13a.52.52 0 0 0 0 1h.13v.83h-.1a.5.5 0 1 0-.2 1h5a.5.5 0 1 0 .2-1 .67.67 0 0 0-.2 0h-.08v-.83h3.72a1.65 1.65 0 0 0 .25-3.3 1.13 1.13 0 0 0-.26 0h-.8a2.16 2.16 0 0 0 0-.35v-.13h.13a2.1 2.1 0 0 0 2.12-2.05zm-5.2 4.82v-.8h1.14a1.82 1.82 0 0 0 1.2-.44h1.38a.62.62 0 1 1 0 1.24h-3.72zm-3.62 1.82v-.82H117v.83zm0-1.82v-.8H117v.8zm-3-2.75H120v.14a.8.8 0 0 1-.8.8h-6.93a.8.8 0 0 1-.8-.78zM109.2 71h13v4.52a1.07 1.07 0 0 1-1.06 1.07H110.3a1.05 1.05 0 0 1-1.06-1.07zM115.73 55.88a2.8 2.8 0 0 0-2 4.78l1.64 1.66a.5.5 0 0 0 .72 0l1.6-1.62a2.8 2.8 0 0 0-2-4.78zm1.27 1.54a1.8 1.8 0 0 1 0 2.52l-1.26 1.25-1.26-1.26a1.78 1.78 0 0 1 2.52-2.52zM3.3 81.4h4.8v-1.46H4.97V55.07H8.1v-1.45H3.3V81.4zM31.92 54.98h3.24v25.05h-3.24v1.36h4.8V53.6h-4.8v1.36z" class="d"/><path d="M11 76.32h.47c.35 0 .8-.06.8-.48s-.33-.5-.66-.5H11zM10 73h1v1.6h.67c.88 0 1.55.3 1.55 1.28s-.72 1.26-1.6 1.26H10zM14.34 76.32h.6c.34 0 .7-.06.7-.48s-.42-.46-.76-.46h-.54zm-.92-3.38h.92v1.7h.45l.87-1.64h1.1l-1.06 1.75a1.08 1.08 0 0 1 .9 1.15c0 1-.7 1.26-1.57 1.26h-1.6zM18.7 73.72a1.2 1.2 0 0 0-1.2 1.22s0 .08 0 .12a1.18 1.18 0 0 0 2.35.3 1.6 1.6 0 0 0 0-.3 1.2 1.2 0 0 0-1.07-1.33h-.1m0 3.52a2 2 0 0 1-2-2 1.2 1.2 0 0 1 0-.2 2 2 0 0 1 4.06 0 2 2 0 0 1-1.8 2.18h-.2" class="b"/><path d="M21.02 77.14h1.4l.95-2.72h.02l.95 2.72h1.4v-4.16h-.93v3.2l-1.1-3.2H23l-1.07 3.2v-3.2H21v4.16zM28 73.72a1.2 1.2 0 0 0-1.18 1.22s0 .08 0 .12a1.18 1.18 0 0 0 2.33.38 1.2 1.2 0 0 0 0-.38 1.2 1.2 0 0 0-1.05-1.33H28m0 3.52a2 2 0 0 1-2-2 1.2 1.2 0 0 1 0-.2 2 2 0 1 1 2.2 2.18H28" class="b"/><path d="M11.58 67.32h1.13c.5 0 1.2-.1 1.2-.74s-.5-.8-1-.8H11.6zm0 2.7h1c.47 0 1-.14 1-.7s-.48-.74-.94-.74h-1.06zm-1.5-5.5h2.78c1.2 0 2.55.47 2.55 1.9a1.6 1.6 0 0 1-1.48 1.64 1.5 1.5 0 0 1 1.17 1.5c0 1.46-1.3 1.7-2.5 1.7H10.1zM19.48 65.7a2 2 0 0 0-2.1 1.87 1.5 1.5 0 0 0 0 .3 2.1 2.1 0 0 0 4.2 0 2.06 2.06 0 0 0-1.9-2.18h-.2m0 5.72a3.43 3.43 0 0 1-3.66-3.18c0-.12 0-.25 0-.37a3.44 3.44 0 0 1 3.32-3.56h.35a3.42 3.42 0 0 1 3.64 3.2c0 .12 0 .25 0 .37a3.44 3.44 0 0 1-3.3 3.56h-.36" class="e"/><path d="M25.25 68.02L23 71.25h1.88l1.45-2.37 1.4 2.37h1.8l-2.2-3.2 2.46-3.57h-1.9l-1.65 2.73-1.6-2.72h-1.78l2.38 3.54z" class="e"/><path d="M13.9 61.47a1.35 1.35 0 0 1-1.05.46 1.66 1.66 0 0 1-1.62-1.68.4.4 0 0 0 0-.1 1.64 1.64 0 0 1 1.45-1.82h.12A1.33 1.33 0 0 1 14 59l1-.76a2.42 2.42 0 0 0-2-1 2.92 2.92 0 1 0-.34 5.76H13a2.4 2.4 0 0 0 1.88-.82zM15.7 62.92h1.23V58.5h2.27v-1.13h-3.5v5.55zM24.38 59.5a2.14 2.14 0 0 0-2-2.28 1.8 1.8 0 0 0-.4 0 2.14 2.14 0 0 0-2.34 1.94 1.3 1.3 0 0 0 0 .34v3.4h1.22v-3.35a1.13 1.13 0 1 1 2.25-.2.74.74 0 0 1 0 .2v3.37h1.23zM26.8 59.66h.93c.4 0 1-.08 1-.6s-.44-.66-.82-.66h-1.1zm0 2.22h.83c.4 0 .83-.12.83-.58s-.4-.6-.77-.6h-.9zm-1.23-4.56h2.28c1 0 2.1.38 2.1 1.54a1.33 1.33 0 0 1-1.23 1.36 1.25 1.25 0 0 1 1 1.23c0 1.2-1.06 1.4-2 1.4h-2.15z" class="c"/><path d="M158 75.85a1.3 1.3 0 0 0 1.28-1.3V49.74a1.3 1.3 0 0 0-1.28-1.3h-18.87a1.3 1.3 0 0 0-1.3 1.3v24.83a1.3 1.3 0 0 0 1.3 1.3z" class="e"/><path d="M140.4 48.44h-1.7a1.3 1.3 0 0 0-1.3 1.3v24.82a1.3 1.3 0 0 0 1.3 1.3h1.7z" class="b"/><path d="M158 75.85h-19.3a1.3 1.3 0 0 1-1.3-1.3V49.74a1.3 1.3 0 0 1 1.3-1.3H158a1.3 1.3 0 0 1 1.28 1.3v24.83a1.3 1.3 0 0 1-1.28 1.3z" class="f"/><path d="M138.27 72.42a.43.43 0 1 1 0 .86h-1.73a.44.44 0 0 1-.42-.43.42.42 0 0 1 .4-.43h1.75zM138.27 70.32a.43.43 0 0 1 0 .86h-1.73a.44.44 0 0 1-.42-.43.42.42 0 0 1 .4-.43h1.75zM138.27 68.14a.43.43 0 1 1 .13.85.3.3 0 0 1-.13 0h-1.73a.44.44 0 0 1-.36-.5.42.42 0 0 1 .36-.36zM138.27 66a.43.43 0 1 1 .13.85.3.3 0 0 1-.13 0h-1.73a.44.44 0 0 1-.36-.5.42.42 0 0 1 .36-.35zM138.27 63.86a.43.43 0 1 1 .13.85.3.3 0 0 1-.13 0h-1.73a.44.44 0 0 1-.36-.48.42.42 0 0 1 .36-.36zM138.27 61.72a.43.43 0 1 1 .13.85h-1.86a.44.44 0 0 1-.36-.5.42.42 0 0 1 .36-.35zM138.27 59.57a.43.43 0 0 1 0 .86h-1.73a.42.42 0 0 1-.42-.42.44.44 0 0 1 .42-.42zM138.27 57.43a.43.43 0 0 1 0 .86h-1.73a.42.42 0 0 1-.42-.43.44.44 0 0 1 .42-.43zM138.27 55.32a.43.43 0 0 1 0 .86h-1.73a.43.43 0 0 1 0-.86zM138.27 53.15a.43.43 0 0 1 0 .86h-1.73a.43.43 0 0 1 0-.85zM138.27 51a.43.43 0 0 1 0 .86h-1.73a.43.43 0 0 1 0-.86z" class="d"/><path d="M140.4 50a.4.4 0 0 1 .44.4v23.5a.43.43 0 0 1-.86 0V50.4a.4.4 0 0 1 .42-.4z" class="c"/><path d="M59.58 45.06v-6.83a.38.38 0 0 0-.38-.38h-9.64a.38.38 0 0 0-.38.38v6.83a.38.38 0 0 0 .38.38h4.2v.78h-.6a.38.38 0 0 0-.38.38v.27a.4.4 0 0 0 .38.4h-.06V49L47 71.22l2 2.17h10.8l1.9-2.18L55.65 49v-1.74h-.06a.4.4 0 0 0 .38-.4v-.26a.38.38 0 0 0-.38-.38h-.66v-.78h4.28a.38.38 0 0 0 .38-.38zm-5.2 8.58L59.14 71H49.6z" class="g"/><path d="M59.58 45.06v-6.83a.38.38 0 0 0-.38-.38h-9.64a.38.38 0 0 0-.38.38v6.83a.38.38 0 0 0 .38.38h9.64a.38.38 0 0 0 .38-.38z" class="b"/><rect width="9.45" height="5.55" x="49.64" y="38.33" class="c" rx=".38" ry=".38"/><path d="M49.18 44.07h10.4v.27h-10.4z" class="c"/><path d="M52.68 42.8h5.93" class="a"/><path d="M52.68 42.77h5.93v.07H52.7z" class="e"/><path d="M52.68 42.1h5.93" class="a"/><path d="M52.68 42.06h5.93v.07H52.7z" class="e"/><path d="M52.68 41.38h5.93" class="a"/><path d="M52.68 41.34h5.93v.07H52.7z" class="e"/><path d="M52.68 40.67h5.93" class="a"/><path d="M52.68 40.63h5.93v.07H52.7z" class="e"/><path d="M52.68 39.95h5.93" class="a"/><path d="M52.68 39.92h5.93V40H52.7z" class="e"/><path d="M50.05 39.22h8.54" class="a"/><path d="M50.05 39.2h8.55v.06h-8.55z" class="e"/><rect width="2.36" height="3.54" x="50.05" y="39.95" class="e" rx=".38" ry=".38"/><path d="M48.97 71.02H59.8v2.37H48.96z" class="e"/><path d="M59.8 73.4l1.9-2.2-6.06-22.17H53.1l6.7 24.36zM48.96 73.4l-1.92-2.2 6.07-22.17h2.54L48.96 73.4z" class="b"/><path d="M53.1 47.25h2.54v1.78H53.1z" class="e"/><rect width="1.15" height="1.97" x="53.77" y="44.49" class="e" rx=".26" ry=".26"/><rect width="3.17" height="1.04" x="52.79" y="46.22" class="c" rx=".38" ry=".38"/><path d="M54.62 45a.27.27 0 1 0-.27.27.27.27 0 0 0 .27-.27z" class="c"/><path d="M30.57 34.46c-.9 2.1-2 3.65-4.37 4.3a24 24 0 0 0-3.2 1.06l-1.23 1.5a.33.33 0 0 1-.3.12 20.07 20.07 0 0 0-7 0 .35.35 0 0 1-.33-.12L13 39.82a26.2 26.2 0 0 0-3.2-1.06c-2.4-.65-3.48-2.2-4.37-4.3s-1.2-6.88-1.2-7.07a.33.33 0 0 1 .22-.35 14.66 14.66 0 0 1 5-.8 87.77 87.77 0 0 0 0-11C9 9 8.9 8.16 8.9 8.14a.34.34 0 0 1 .26-.4A58.7 58.7 0 0 1 18 6.87a57.32 57.32 0 0 1 8.86.88.34.34 0 0 1 .27.38S27 9 26.6 15.26a87.77 87.77 0 0 0 0 11 14.66 14.66 0 0 1 5 .8.36.36 0 0 1 .24.33c-.07.18-.33 4.85-1.27 7.06z" class="h"/><path d="M14.44 41.1a20 20 0 0 1 7.08 0s1.37-4.14-2-4.64a4.17 4.17 0 0 0-5.08 4.64z" class="b"/><path d="M26.6 26.6a14.75 14.75 0 0 1 4.85.72s-.26 4.77-1.2 7-2 3.5-4.13 4.1a24.08 24.08 0 0 0-3.33 1.12L18 38.32l-4.82 1.23a24.4 24.4 0 0 0-3.32-1.1c-2.18-.6-3.22-1.94-4.14-4.12s-1.2-7-1.2-7a14.8 14.8 0 0 1 4.86-.78L9.6 28a91 91 0 0 0 .15-12.8C9.3 8.7 9.2 8 9.2 8a56.56 56.56 0 0 1 8.8-.84 56.56 56.56 0 0 1 8.8.84s-.1.67-.55 7.17A88.07 88.07 0 0 0 26.4 28z" class="c"/><path d="M26.84 7.75a.34.34 0 0 1 .27.38s-.1.87-.54 7.14a87.77 87.77 0 0 0 0 11 14.66 14.66 0 0 1 5 .8.36.36 0 0 1 .23.33c0 .2-.28 4.86-1.22 7.07s-2 3.65-4.37 4.3a22 22 0 0 0-3.26 1.1.28.28 0 0 1-.22 0L18 38.66l-4.73 1.2a.28.28 0 0 1-.22 0 23.35 23.35 0 0 0-3.28-1.1c-2.38-.64-3.47-2.18-4.36-4.3s-1.2-6.87-1.2-7.06a.33.33 0 0 1 .23-.33 14.66 14.66 0 0 1 5-.8 87.77 87.77 0 0 0 0-11C9 9 8.88 8.18 8.88 8.16a.34.34 0 0 1 .26-.4A58.7 58.7 0 0 1 18 6.9a56.92 56.92 0 0 1 8.84.87zm-16.78 7.48a91.7 91.7 0 0 1-.15 12.84.33.33 0 0 1-.3.3.34.34 0 0 1-.35-.28l-.18-1.2a14.7 14.7 0 0 0-4.2.7A26.78 26.78 0 0 0 6 34.2c.84 2 1.8 3.34 3.93 3.9a26.48 26.48 0 0 1 3.26 1.1l4.7-1.2h.16l4.7 1.2A26 26 0 0 1 26 38.1c2.13-.56 3.08-1.9 3.93-3.9a26.78 26.78 0 0 0 1.14-6.6 14.7 14.7 0 0 0-4.2-.7l-.2 1.2a.34.34 0 0 1-.38.27.35.35 0 0 1-.3-.28 91.7 91.7 0 0 1-.13-12.85c.3-4.57.46-6.26.52-6.88a55.58 55.58 0 0 0-8.4-.82 55.13 55.13 0 0 0-8.4.77c0 .68.15 2.34.46 6.9zM9.58 27.76a.3.3 0 0 0-.28.24 8.15 8.15 0 0 1-.66 2.26c-.1.23-.18.48-.28.76a11.27 11.27 0 0 0-.74 3.08.28.28 0 0 0 .26.3.27.27 0 0 0 .3-.26 11.76 11.76 0 0 1 .7-2.92c.1-.28.2-.53.28-.76a9.07 9.07 0 0 0 .7-2.4.28.28 0 0 0-.26-.3zM26.38 27.76a.3.3 0 0 0-.25.3 9.07 9.07 0 0 0 .7 2.4c.08.23.17.48.28.76a11.3 11.3 0 0 1 .7 2.92.28.28 0 0 0 .3.26.3.3 0 0 0 .27-.3 12.15 12.15 0 0 0-.74-3.1c-.1-.28-.2-.53-.28-.76a8.9 8.9 0 0 1-.67-2.24.27.27 0 0 0-.3-.25z" class="d"/><path d="M18 38.32a4.32 4.32 0 0 1 3.54 2.78l1.27-1.55s-.8-1.93-2.15-2.35zM18 38.32a4.32 4.32 0 0 0-3.54 2.78l-1.28-1.55s.76-1.93 2.15-2.35z" class="b"/><path d="M20.74 36.88c1.53.44 2.33 2.44 2.36 2.54a.32.32 0 0 1-.05.34l-1.28 1.56a.3.3 0 0 1-.32.12.34.34 0 0 1-.25-.23 3.92 3.92 0 0 0-3.26-2.53.34.34 0 0 1-.3-.3.33.33 0 0 1 .2-.34l2.68-1.13h.13zm.88 3.57l.8-1a4 4 0 0 0-1.76-1.94l-1.66.74a4.36 4.36 0 0 1 2.62 2.2zM15.44 36.9L18.1 38a.33.33 0 0 1 .2.35.36.36 0 0 1-.3.3 3.93 3.93 0 0 0-3.24 2.53.36.36 0 0 1-.26.23.33.33 0 0 1-.32-.1l-1.27-1.56a.35.35 0 0 1-.05-.34 4.5 4.5 0 0 1 2.36-2.54h.1a.3.3 0 0 1 .14.03zm-1.1 3.55a4.35 4.35 0 0 1 2.58-2.2l-1.62-.7a3.9 3.9 0 0 0-1.75 1.94zM18 40.45a20.68 20.68 0 0 0-3.6.32l.12.66a20.07 20.07 0 0 1 7 0l.12-.66a21.14 21.14 0 0 0-3.64-.32z" class="d"/><path d="M18.02 38v-6.28" class="i"/><circle cx="18.03" cy="33.44" r=".21" class="e"/><circle cx="18.03" cy="35.71" r=".21" class="e"/><circle cx="18.03" cy="37.99" r=".21" class="e"/><path d="M93.9 66.07v-18.7a1.27 1.27 0 0 0-1.26-1.26H76a1.25 1.25 0 0 0-1.16.8 1.16 1.16 0 0 0-.1.48v18.7a.34.34 0 0 0 .34.33h3.57v.07a20 20 0 0 0 2 7.1c.78 1.6 2.3 4 3.7 4s2.95-2.34 3.72-4a19.8 19.8 0 0 0 2-7.1v-.06h3.57a.34.34 0 0 0 .27-.33zm-12.78.34h6.37v.4c0 2.35-1.57 5.16-1.44 6.3.2 1.64-.46 4-1.76 4s-2-2.3-1.76-4c.14-1.14-1.42-4-1.42-6.3z" class="j"/><path d="M92.64 46.1a1.27 1.27 0 0 1 1.27 1.28v18.7a.34.34 0 0 1-.33.33H75a.34.34 0 0 1-.34-.33v-18.7a1.25 1.25 0 0 1 1.25-1.26h16.74z" class="e"/><path d="M74.7 55.24v-7.86A1.25 1.25 0 0 1 76 46.1h16.64a1.27 1.27 0 0 1 1.27 1.28v7.86z" class="b"/><path d="M84.3 77.52c1.42 0 2.94-2.34 3.7-4a19.8 19.8 0 0 0 2-7.1V46.08h-2.5V66.8c0 2.35-1.57 5.16-1.44 6.3.2 1.64-.46 4-1.76 4s-2-2.3-1.76-4c.14-1.14-1.42-4-1.42-6.3V46.08h-2.5v20.4a20 20 0 0 0 2 7.1c.75 1.6 2.26 3.94 3.68 3.94z" class="c"/><path d="M73.25 7.16c-1.3.76-5.5 3.8-6.53 4.53A30.17 30.17 0 0 1 64 21.53c-3 4.25-9.18 4.57-11 4.57a.2.2 0 0 1 .08.17c0 .2-.35.37-.78.37s-.8-.17-.8-.37a.26.26 0 0 1 .1-.16 10.17 10.17 0 0 1-5.9-2.1c-4.47-2.66-4.47-12-4.37-14.77a.93.93 0 0 1 .9-.9c1.2 0 3.36.1 5.1.2A20.74 20.74 0 0 1 51.45 5c1.92-1 4.45-2.58 9.1-.82s11.5 3.08 13.17 2c0 .04 1.02.14-.47.98z" class="g"/><path d="M47.14 8.78A21.12 21.12 0 0 1 51.44 5c1.93-1 4.46-2.58 9.12-.82s11.5 3.08 13.16 2c0 0 1 .07-.47.94s-6.76 4.7-6.76 4.7z" class="e"/><path d="M48.78 9a25.9 25.9 0 0 1 5.82-3.8c1.52-.57 2.7-.23 4.37.23l.55.16a85.3 85.3 0 0 0 12.15 2.6L72 8a80.73 80.73 0 0 1-12.4-2.65l-.6-.2a11 11 0 0 0-2.84-.53 4.86 4.86 0 0 0-1.7.3 25.74 25.74 0 0 0-6 4z" class="c"/><path d="M51.5 26.27c0-.2.34-.37.78-.37s.78.16.78.37-.35.37-.78.37-.8-.17-.8-.37z" class="e"/><path d="M52.46 26.1s7.95.46 11.5-4.56a30 30 0 0 0 2.78-9.84A107.78 107.78 0 0 0 50 8.78s-1 8.88-1 9.93-.18 7.04 3.46 7.4z" class="b"/><path d="M45.7 24a10.25 10.25 0 0 0 7 2.1h-.26C48.8 25.78 49 19.8 49 18.75s1-9.93 1-9.93-5.55-.5-7.82-.4a.93.93 0 0 0-.9.88C41.24 12 41.24 21.32 45.7 24z" class="c"/><path d="M84.7 23.1l-7.52-.42a1.52 1.52 0 0 0-1.44.87l-.38.85a.67.67 0 0 0 .37.87.65.65 0 0 0 .27.05h8.72z" class="b"/><path d="M84.7 25.32h-8a6.66 6.66 0 0 1-.46-2.42 1.54 1.54 0 0 1 .9-.25l7.5.4z" class="k"/><path d="M96 13.32l.68-7.48a1.5 1.5 0 0 1 1.07-1.3l.9-.26a.67.67 0 0 1 .84.74l-1.3 8.63z" class="b"/><path d="M98.2 13.65l1.17-7.87A6.84 6.84 0 0 0 97 5a1.52 1.52 0 0 0-.37.85L96 13.32z" class="k"/><path d="M91.47 19.5c.3-.24.77-.72.3-1.3a8.47 8.47 0 0 1-1.33-2.36C88.8 11.62 90 9.76 92.7 7.57c1-.8 2.1-1.8 3.5-1.83s2.67.54 4.72 1.9a9.52 9.52 0 0 1 1.73 1.45 1.24 1.24 0 0 0 1.32.05.67.67 0 0 1 .76.2l.8.92a.7.7 0 0 1 .08.83 22.7 22.7 0 0 1-5.42 6c-2.74 2.24-5.73 4-6.63 4.8s-3.1 3.48-5.7 5.86a22.23 22.23 0 0 1-6.75 4.56.7.7 0 0 1-.8-.2l-.82-.92a.66.66 0 0 1-.07-.78 1.26 1.26 0 0 0 .14-1.32 9.15 9.15 0 0 1-1.17-1.9c-1.06-2.24-1.43-3.72-1.22-5s1.4-2.35 2.32-3.2C82 16.6 84 15.72 88 18a8.63 8.63 0 0 1 2.16 1.64c.47.53 1.02.13 1.3-.13z" class="d"/><path d="M86.85 26.7c-2.45 2.28-5.14 4.5-7.16-.18-1.83-4.23-.8-5 .78-6.46s3.27-2.8 6.78-.82c3.74 2.08 3.1 4.2-.4 7.47z" class="c"/><path d="M86.85 26.7c-2.07 1.94-4.32 3.82-6.2 1.5 1.84 2 4 .16 6-1.7 2.7-2.5 3.7-4.3 2.37-5.95 1.6 1.7.63 3.56-2.17 6.16z" class="k"/><path d="M99.26 16c2.6-2.1 5.2-4.43.85-7.1-3.92-2.42-4.8-1.5-6.5-.16s-3.25 2.83-1.8 6.6c1.56 3.98 3.7 3.66 7.46.66z" class="c"/><path d="M99.26 16c2.2-1.77 4.4-3.72 2.38-5.9 1.7 2.1-.44 4-2.57 5.7-2.85 2.28-4.78 3-6.22 1.46 1.46 1.8 3.43 1.12 6.4-1.26z" class="k"/><path d="M86.85 26.7c-2.45 2.28-5.14 4.5-7.16-.18-.28-.64-.5-1.2-.65-1.7l9 .67a10.53 10.53 0 0 1-1.2 1.2zM102.4 12.16l-11-.8a5.82 5.82 0 0 1 2.2-2.64c1.7-1.34 2.58-2.26 6.5.16 1.9 1.12 2.47 2.24 2.3 3.28z" class="l"/><path d="M124.23 25v6.42H114a1.3 1.3 0 0 1-1.3-1.3v-3.8A1.3 1.3 0 0 1 114 25h10.27zM124.23 25H114V14.74a1.3 1.3 0 0 1 1.3-1.3h9zM137 31.4h-10.23V25H137a1.3 1.3 0 0 1 1.3 1.27v3.86a1.3 1.3 0 0 1-1.3 1.28" class="m"/><path d="M126.77 13.45h9a1.28 1.28 0 0 1 1.23 1.3V25h-10.23z" class="m"/><path d="M126.8 31.76h-2.56v-18.3h2.56v18.3z" class="n"/><path d="M125.52 34.8c-1.4 0-2.56-.87-2.56-1.93S124.1 31 125.52 31s2.56.86 2.56 1.92-1.15 1.92-2.56 1.92M123 32.87a2.12 2.12 0 0 0 .38 1.17 2.14 2.14 0 0 1-.65.35L118 36a1.13 1.13 0 0 1-.36.06.85.85 0 0 1-.84-.78l-.43-2.63a.82.82 0 0 1 .58-1 .75.75 0 0 1 .3 0H123a1.52 1.52 0 0 1 .42.06 2.12 2.12 0 0 0-.42 1.24M134.8 32.63l-.44 2.63a.83.83 0 0 1-.83.78 1.13 1.13 0 0 1-.36-.06l-4.74-1.6a2 2 0 0 1-.65-.34 2 2 0 0 0 0-2.4 1.4 1.4 0 0 1 .4-.06H134a.84.84 0 0 1 .9.75.77.77 0 0 1 0 .3" class="o"/></pattern></defs><title>why-crop-3</title><path d="M0 0h666v433H0z" class="p"/></svg>