<svg xmlns="http://www.w3.org/2000/svg" xmlns:xlink="http://www.w3.org/1999/xlink" width="666" height="443" viewBox="0 0 666 443"><defs><style>.a,.f,.g,.h,.i{fill:none;}.b{fill:#ff4713;}.c,.j{fill:#00c4b3;}.d{fill:#3a2b1e;}.e{fill:#eba900;}.f,.g,.h,.i,.j{stroke:#3a2b1e;}.f,.g,.h,.i,.j,.m,.n,.o{stroke-miterlimit:10;}.f{stroke-width:0.89px;}.g{stroke-width:1.78px;}.h{stroke-width:0.47px;}.i{stroke-width:0.67px;}.j{stroke-width:1.58px;}.k{fill:#010101;opacity:0.2;}.k,.l{isolation:isolate;}.l,.n{fill:#fff;}.l{opacity:0.1;}.m{fill:#00619d;}.m,.n,.o{stroke:#414042;stroke-width:1.05px;}.o{fill:#f47b20;}.p{fill:url(#a);}</style><pattern id="a" width="165.87" height="86.32" patternTransform="matrix(1, 0, 0, -1, 17.25, 812.69)" patternUnits="userSpaceOnUse" viewBox="0 0 165.87 86.32"><rect class="a" width="165.87" height="86.32"/><rect class="a" width="165.87" height="86.32"/><path class="b" d="M145.85,38.92l1.49-3.39,1.3.57-1.49,3.39Z"/><path class="b" d="M156.1,14.21a.42.42,0,0,1-.55.22h0l-.65-.28-7.62,17.31,4.42,2,7.62-17.32-2.21-1a.43.43,0,0,1-.22-.56Z"/><path class="c" d="M147.29,34.58l2.09.91,1.17.52.8-1.82-4.43-1.95-.8,1.82Z"/><path class="d" d="M145.12,39.52l2.08.92a.42.42,0,0,0,.55-.19v0l1.66-3.77,1.18.51a.44.44,0,0,0,.32,0,.39.39,0,0,0,.24-.23l1-2.25a2.14,2.14,0,0,0,2.4-1.22l3.3-7.49a.43.43,0,0,0-.22-.56.38.38,0,0,0-.33,0,.37.37,0,0,0-.23.23l-3.3,7.48a1.27,1.27,0,0,1-1.26.76l7.76-17.63h0V16h0l1-5.78a.44.44,0,0,0-.25-.47l-.15-.06.41-.93a1.26,1.26,0,0,0-.65-1.66h0a1.24,1.24,0,0,0-1,0,1.21,1.21,0,0,0-.69.66l-.42.93-.15-.06a.44.44,0,0,0-.32,0,.45.45,0,0,0-.19.14l-3.54,4.59h0L145.22,34a.42.42,0,0,0,.21.56h0l1.17.52L145,38.87a.42.42,0,0,0,.19.55h0ZM160.31,7.83a.38.38,0,0,1,.21.22.42.42,0,0,1,0,.31l-.41.93L159.37,9l.41-.93a.4.4,0,0,1,.22-.22.42.42,0,0,1,.31,0Zm.08,2.52-.84,4.91-2.11-.92a.44.44,0,0,0-.32,0,.45.45,0,0,0-.24.23.43.43,0,0,0,.22.56l2.21,1-7.62,17.32-4.42-2,7.62-17.31.65.28a.42.42,0,0,0,.59-.14.42.42,0,0,0-.14-.59l-.11,0-.54-.24,3-3.94ZM146.92,32.24l4.43,1.95-.8,1.82-4.43-1.95Zm1.72,3.86-1.49,3.39-1.3-.57,1.49-3.39Z"/><path class="c" d="M159.37,9l.74.32.41-.93a.42.42,0,0,0,0-.31.38.38,0,0,0-.21-.22.42.42,0,0,0-.31,0,.4.4,0,0,0-.22.22Z"/><path class="e" d="M155.34,13.41l.54.24a.42.42,0,0,1,.22.55h0l.78.35a.45.45,0,0,1,.24-.23.44.44,0,0,1,.32,0l2.11.92.84-4.91-2-.88Z"/><path class="b" d="M108.72,67.88a1.81,1.81,0,0,1,0,2.56l0,0h14a1.81,1.81,0,0,1,0-2.56l0,0Z"/><path class="c" d="M122.74,67.88V50.54a1.38,1.38,0,0,0-1.38-1.38H110.1a1.38,1.38,0,0,0-1.38,1.38V67.88Z"/><path class="c" d="M121.16,77.07H110.3a1.58,1.58,0,0,1-1.58-1.58h0v-5h14v5A1.59,1.59,0,0,1,121.16,77.07Z"/><path class="e" d="M111.49,61.21v6.67h-2.77V61.56h0v-11a1.38,1.38,0,0,1,1.38-1.38h5.84C112.09,50.61,111.55,58.22,111.49,61.21Z"/><path class="e" d="M113.07,77.07a1.58,1.58,0,0,1-1.58-1.58h0v-5h-2.77v5a1.58,1.58,0,0,0,1.58,1.58h2.77Z"/><path class="c" d="M119.19,79h-6.92A1.32,1.32,0,0,1,111,77.71v-.64h9.56v.64A1.32,1.32,0,0,1,119.24,79Z"/><path class="e" d="M115.14,79h-2.87A1.32,1.32,0,0,1,111,77.71v-.64h2.87v.64A1.32,1.32,0,0,0,115.14,79Z"/><rect class="b" x="113.91" y="79.03" width="3.63" height="3.63"/><rect class="e" x="113.91" y="79.03" width="1.82" height="3.63"/><path class="b" d="M117.35,60.32l-1.62,1.62-1.62-1.62a2.3,2.3,0,0,1,0-3.24h0a2.3,2.3,0,0,1,3.24,0h0A2.3,2.3,0,0,1,117.35,60.32Z"/><path class="d" d="M123.25,75.49v-5a.49.49,0,0,0-.15-.36,1.32,1.32,0,0,1,0-1.86.49.49,0,0,0,.15-.36V50.54a1.89,1.89,0,0,0-1.89-1.89H110.1a1.89,1.89,0,0,0-1.89,1.89v3.27a.52.52,0,0,0,1,0V50.54a.87.87,0,0,1,.85-.87h11.27a.87.87,0,0,1,.87.87h0V67.32h-2.9a.51.51,0,0,0-.2,1,.67.67,0,0,0,.2,0h2.49a2.45,2.45,0,0,0,0,1.56H109.64a2.45,2.45,0,0,0,0-1.56h8a.51.51,0,1,0,.2-1h-8.58V55.65a.52.52,0,0,0-1,0V67.88a.49.49,0,0,0,.15.36,1.32,1.32,0,0,1,0,1.86.49.49,0,0,0-.15.36v5a2.11,2.11,0,0,0,2.09,2.09h.13v.16a1.85,1.85,0,0,0,1.84,1.83h1.13v.78h-.13a.52.52,0,0,0,0,1h.13v.83h-.09a.51.51,0,1,0-.2,1h5a.51.51,0,1,0,.2-1,.67.67,0,0,0-.2,0h-.09v-.83h3.72a1.65,1.65,0,0,0,.26-3.29,1.13,1.13,0,0,0-.26,0H121a2.16,2.16,0,0,0,0-.36v-.13h.13A2.1,2.1,0,0,0,123.25,75.49Zm-5.19,4.83v-.79h1.13a1.82,1.82,0,0,0,1.2-.45h1.39a.62.62,0,1,1,0,1.24h-3.72Zm-3.63,1.82v-.82H117v.83Zm0-1.82v-.79H117v.79Zm-3-2.75H120v.14a.8.8,0,0,1-.8.8h-6.93a.8.8,0,0,1-.81-.79h0ZM109.21,71h13v4.52a1.07,1.07,0,0,1-1.07,1.07H110.3a1.05,1.05,0,0,1-1.06-1.06h0Z"/><path class="d" d="M115.73,55.88a2.8,2.8,0,0,0-2,4.78l1.64,1.66a.51.51,0,0,0,.72,0l1.62-1.62a2.8,2.8,0,0,0-2-4.78ZM117,57.42a1.79,1.79,0,0,1,0,2.52l-1.26,1.25-1.26-1.25A1.78,1.78,0,0,1,117,57.42Z"/><polygon class="d" points="3.31 81.39 8.11 81.39 8.11 79.94 4.96 79.94 4.96 55.07 8.11 55.07 8.11 53.62 3.31 53.62 3.31 81.39"/><polygon class="d" points="31.92 54.98 35.16 54.98 35.16 80.03 31.92 80.03 31.92 81.39 36.72 81.39 36.72 53.62 31.92 53.62 31.92 54.98"/><path class="b" d="M11,76.32h.47c.35,0,.79-.06.79-.48s-.32-.5-.65-.5H11ZM10,73h1V74.6h.67c.88,0,1.55.3,1.55,1.28s-.72,1.26-1.59,1.26H10Z"/><path class="b" d="M14.34,76.32h.6c.34,0,.71-.06.71-.48s-.43-.46-.77-.46h-.54Zm-.92-3.38h.92v1.7h.45L15.67,73h1.1l-1.06,1.75a1.08,1.08,0,0,1,.9,1.15c0,1-.72,1.26-1.58,1.26H13.42Z"/><path class="b" d="M18.69,73.72a1.2,1.2,0,0,0-1.18,1.22s0,.08,0,.12a1.18,1.18,0,0,0,2.34.31,1.6,1.6,0,0,0,0-.31,1.21,1.21,0,0,0-1.07-1.33h-.1m0,3.52a2,2,0,0,1-2-2,1.21,1.21,0,0,1,0-.19,2,2,0,0,1,4.06,0,2,2,0,0,1-1.81,2.17h-.19"/><polygon class="b" points="21.02 77.14 22.41 77.14 23.37 74.42 23.39 74.42 24.35 77.14 25.74 77.14 25.74 72.98 24.82 72.98 24.82 76.17 24.81 76.17 23.71 72.98 23.01 72.98 21.95 76.17 21.94 76.17 21.94 72.98 21.02 72.98 21.02 77.14"/><path class="b" d="M28,73.72a1.2,1.2,0,0,0-1.18,1.22s0,.08,0,.12a1.18,1.18,0,0,0,2.33.38,1.21,1.21,0,0,0,0-.38,1.19,1.19,0,0,0-1.05-1.33H28m0,3.52a2,2,0,0,1-2-2,1.21,1.21,0,0,1,0-.19,2,2,0,1,1,2.19,2.17H28"/><path class="e" d="M11.58,67.32h1.13c.49,0,1.2-.1,1.2-.74s-.52-.79-1-.79H11.58Zm0,2.71h1c.47,0,1-.15,1-.71s-.48-.74-.94-.74H11.58Zm-1.5-5.51h2.78c1.21,0,2.55.47,2.55,1.89a1.61,1.61,0,0,1-1.49,1.65h0a1.51,1.51,0,0,1,1.17,1.49c0,1.47-1.29,1.72-2.48,1.72H10.08Z"/><path class="e" d="M19.48,65.69a2,2,0,0,0-2.11,1.88,1.5,1.5,0,0,0,0,.3,2.11,2.11,0,0,0,4.22,0h0a2.06,2.06,0,0,0-1.91-2.18h-.2m0,5.73a3.43,3.43,0,0,1-3.66-3.18c0-.12,0-.25,0-.37a3.44,3.44,0,0,1,3.32-3.56h.35a3.42,3.42,0,0,1,3.65,3.19c0,.12,0,.25,0,.37a3.44,3.44,0,0,1-3.3,3.56h-.36"/><polygon class="e" points="25.25 68.02 23 71.25 24.88 71.25 26.33 68.88 27.72 71.25 29.53 71.25 27.34 68.05 29.79 64.48 27.91 64.48 26.25 67.21 24.64 64.48 22.87 64.48 25.25 68.02"/><path class="c" d="M13.91,61.47a1.35,1.35,0,0,1-1.06.46,1.66,1.66,0,0,1-1.62-1.68.41.41,0,0,0,0-.11,1.64,1.64,0,0,1,1.45-1.81h.12A1.33,1.33,0,0,1,14,59l1-.76a2.42,2.42,0,0,0-2-1A2.92,2.92,0,1,0,12.66,63H13a2.4,2.4,0,0,0,1.88-.82Z"/><polygon class="c" points="15.7 62.92 16.93 62.92 16.93 58.5 19.2 58.5 19.2 57.37 15.7 57.37 15.7 62.92"/><path class="c" d="M24.38,59.51a2.14,2.14,0,0,0-2-2.29,1.79,1.79,0,0,0-.4,0,2.14,2.14,0,0,0-2.34,1.94,1.29,1.29,0,0,0,0,.34v3.41h1.22V59.55a1.13,1.13,0,1,1,2.25-.21.74.74,0,0,1,0,.21v3.37h1.22Z"/><path class="c" d="M26.8,59.66h.93c.4,0,1-.08,1-.61s-.44-.65-.82-.65H26.8Zm0,2.22h.83c.39,0,.83-.12.83-.58s-.4-.6-.77-.6H26.8Zm-1.23-4.56h2.28c1,0,2.09.38,2.09,1.54a1.33,1.33,0,0,1-1.22,1.36h0a1.25,1.25,0,0,1,1,1.23c0,1.2-1.06,1.41-2,1.41H25.57Z"/><path class="e" d="M158,75.85a1.29,1.29,0,0,0,1.28-1.29V49.73A1.29,1.29,0,0,0,158,48.44H139.13a1.29,1.29,0,0,0-1.29,1.29V74.56a1.29,1.29,0,0,0,1.29,1.29Z"/><path class="b" d="M140.41,48.44h-1.72a1.29,1.29,0,0,0-1.29,1.29V74.56a1.29,1.29,0,0,0,1.29,1.29h1.72Z"/><path class="f" d="M158,75.85H138.69a1.29,1.29,0,0,1-1.29-1.29V49.73a1.29,1.29,0,0,1,1.29-1.29H158a1.29,1.29,0,0,1,1.28,1.29V74.56A1.29,1.29,0,0,1,158,75.85Z"/><path class="d" d="M138.27,72.42a.43.43,0,1,1,0,.86h-1.73a.44.44,0,0,1-.42-.43.42.42,0,0,1,.41-.43h1.74Z"/><path class="d" d="M138.27,70.32a.43.43,0,0,1,0,.86h-1.73a.44.44,0,0,1-.42-.43.42.42,0,0,1,.41-.43h1.74Z"/><path class="d" d="M138.27,68.14a.43.43,0,1,1,.13.85.29.29,0,0,1-.13,0h-1.73a.44.44,0,0,1-.36-.49.42.42,0,0,1,.36-.36Z"/><path class="d" d="M138.27,66a.43.43,0,1,1,.13.85.29.29,0,0,1-.13,0h-1.73a.44.44,0,0,1-.36-.49.42.42,0,0,1,.36-.36Z"/><path class="d" d="M138.27,63.86a.43.43,0,1,1,.13.85.29.29,0,0,1-.13,0h-1.73a.44.44,0,0,1-.36-.49.42.42,0,0,1,.36-.36Z"/><path class="d" d="M138.27,61.72a.43.43,0,1,1,.13.85h-1.86a.44.44,0,0,1-.36-.49.42.42,0,0,1,.36-.36Z"/><path class="d" d="M138.27,59.57a.43.43,0,0,1,0,.86h-1.73a.42.42,0,0,1-.42-.42h0a.44.44,0,0,1,.42-.43Z"/><path class="d" d="M138.27,57.43a.43.43,0,0,1,0,.86h-1.73a.42.42,0,0,1-.42-.42h0a.44.44,0,0,1,.42-.43Z"/><path class="d" d="M138.27,55.32a.43.43,0,0,1,0,.86h-1.73a.43.43,0,0,1,0-.86Z"/><path class="d" d="M138.27,53.15a.43.43,0,0,1,0,.86h-1.73a.43.43,0,0,1,0-.86Z"/><path class="d" d="M138.27,51a.43.43,0,0,1,0,.86h-1.73a.43.43,0,0,1,0-.86Z"/><path class="c" d="M140.41,50a.41.41,0,0,1,.43.39h0V73.89a.43.43,0,0,1-.86,0V50.42a.41.41,0,0,1,.42-.4Z"/><path class="g" d="M59.58,45.06V38.23a.38.38,0,0,0-.38-.38H49.56a.38.38,0,0,0-.38.38h0v6.83a.38.38,0,0,0,.38.38h4.21v.78h-.61a.38.38,0,0,0-.38.38h0v.27a.4.4,0,0,0,.38.39H53.1V49h0L47,71.22l2,2.17H59.79l1.92-2.17L55.64,49h0V47.26h-.06a.4.4,0,0,0,.38-.39V46.6a.38.38,0,0,0-.38-.38h-.66v-.78H59.2A.38.38,0,0,0,59.58,45.06Zm-5.2,8.58L59.14,71H49.61Z"/><path class="b" d="M59.58,45.06V38.23a.38.38,0,0,0-.38-.38H49.56a.38.38,0,0,0-.38.38h0v6.83a.38.38,0,0,0,.38.38H59.2A.38.38,0,0,0,59.58,45.06Z"/><rect class="c" x="49.64" y="38.33" width="9.45" height="5.55" rx="0.38" ry="0.38"/><rect class="c" x="49.18" y="44.07" width="10.4" height="0.27"/><line class="a" x1="52.68" y1="42.81" x2="58.61" y2="42.81"/><rect class="e" x="52.68" y="42.77" width="5.93" height="0.07"/><line class="a" x1="52.68" y1="42.09" x2="58.61" y2="42.09"/><rect class="e" x="52.68" y="42.06" width="5.93" height="0.07"/><line class="a" x1="52.68" y1="41.38" x2="58.61" y2="41.38"/><rect class="e" x="52.68" y="41.34" width="5.93" height="0.07"/><line class="a" x1="52.68" y1="40.67" x2="58.61" y2="40.67"/><rect class="e" x="52.68" y="40.63" width="5.93" height="0.07"/><line class="a" x1="52.68" y1="39.95" x2="58.61" y2="39.95"/><rect class="e" x="52.68" y="39.92" width="5.93" height="0.07"/><line class="a" x1="50.05" y1="39.22" x2="58.59" y2="39.22"/><rect class="e" x="50.05" y="39.19" width="8.55" height="0.07"/><rect class="e" x="50.05" y="39.95" width="2.36" height="3.54" rx="0.38" ry="0.38"/><rect class="e" x="48.97" y="71.02" width="10.82" height="2.37"/><polygon class="b" points="59.79 73.39 61.71 71.21 55.64 49.03 53.11 49.03 59.79 73.39"/><polygon class="b" points="48.96 73.39 47.04 71.21 53.11 49.03 55.64 49.03 48.96 73.39"/><rect class="e" x="53.11" y="47.25" width="2.53" height="1.78"/><rect class="e" x="53.77" y="44.49" width="1.15" height="1.97" rx="0.26" ry="0.26"/><rect class="c" x="52.79" y="46.22" width="3.17" height="1.04" rx="0.38" ry="0.38"/><path class="c" d="M54.62,45a.27.27,0,1,0-.27.27.27.27,0,0,0,.27-.27Z"/><path class="h" d="M30.57,34.46c-.9,2.11-2,3.65-4.37,4.3A24,24,0,0,0,23,39.82l-1.23,1.5a.33.33,0,0,1-.31.12h0a20.07,20.07,0,0,0-7,0h0a.35.35,0,0,1-.32-.12L13,39.82a26.21,26.21,0,0,0-3.21-1.06c-2.38-.65-3.47-2.19-4.36-4.3s-1.2-6.88-1.21-7.07a.33.33,0,0,1,.23-.34,14.66,14.66,0,0,1,5-.79,87.77,87.77,0,0,0,0-11C9,9,8.9,8.15,8.9,8.13a.34.34,0,0,1,.26-.39A58.71,58.71,0,0,1,18,6.86a57.32,57.32,0,0,1,8.86.88.34.34,0,0,1,.27.38S27,9,26.61,15.26a87.77,87.77,0,0,0,0,11,14.66,14.66,0,0,1,5,.79.36.36,0,0,1,.23.34C31.77,27.58,31.51,32.25,30.57,34.46Z"/><path class="b" d="M14.44,41.1a20,20,0,0,1,7.08,0s1.37-4.14-2-4.64a4.17,4.17,0,0,0-5.08,4.64Z"/><path class="c" d="M26.6,26.59a14.75,14.75,0,0,1,4.85.73s-.26,4.77-1.19,7-2,3.51-4.14,4.11a24.08,24.08,0,0,0-3.33,1.11L18,38.32l-4.82,1.23a24.4,24.4,0,0,0-3.32-1.11c-2.18-.6-3.22-1.93-4.14-4.11s-1.19-7-1.19-7a14.8,14.8,0,0,1,4.85-.78L9.6,28a91,91,0,0,0,.15-12.79C9.31,8.71,9.19,8,9.19,8A56.56,56.56,0,0,1,18,7.16,56.56,56.56,0,0,1,26.8,8s-.11.67-.55,7.17A88.07,88.07,0,0,0,26.4,28Z"/><path class="d" d="M26.84,7.75a.34.34,0,0,1,.27.38S27,9,26.56,15.27a87.77,87.77,0,0,0,0,11,14.66,14.66,0,0,1,5,.79.36.36,0,0,1,.23.34c0,.19-.27,4.86-1.21,7.07s-2,3.65-4.37,4.3a22,22,0,0,0-3.27,1.09.28.28,0,0,1-.22,0L18,38.67l-4.73,1.2a.28.28,0,0,1-.22,0,23.35,23.35,0,0,0-3.28-1.09c-2.38-.65-3.47-2.19-4.36-4.3S4.21,27.6,4.2,27.41a.33.33,0,0,1,.23-.34,14.66,14.66,0,0,1,5-.79,87.77,87.77,0,0,0,0-11C9,9,8.88,8.17,8.88,8.15a.34.34,0,0,1,.26-.39A58.71,58.71,0,0,1,18,6.88,56.92,56.92,0,0,1,26.84,7.75ZM10.06,15.23a91.71,91.71,0,0,1-.15,12.84.33.33,0,0,1-.32.3.34.34,0,0,1-.34-.28L9.07,26.9a14.69,14.69,0,0,0-4.21.71A26.78,26.78,0,0,0,6,34.2c.84,2,1.8,3.34,3.93,3.91a26.48,26.48,0,0,1,3.26,1.08L17.9,38h.16l4.71,1.19A26,26,0,0,1,26,38.11c2.13-.57,3.08-1.92,3.93-3.91a26.78,26.78,0,0,0,1.14-6.59,14.69,14.69,0,0,0-4.21-.71l-.18,1.19a.34.34,0,0,1-.39.28.35.35,0,0,1-.28-.28,91.7,91.7,0,0,1-.14-12.84c.31-4.57.46-6.26.52-6.88A55.58,55.58,0,0,0,18,7.55a55.13,55.13,0,0,0-8.41.77C9.6,9,9.75,10.66,10.06,15.23Z"/><path class="d" d="M9.58,27.76A.29.29,0,0,0,9.3,28a8.15,8.15,0,0,1-.66,2.26c-.09.23-.18.48-.28.76a11.27,11.27,0,0,0-.74,3.08.28.28,0,0,0,.26.29.27.27,0,0,0,.29-.25h0a11.76,11.76,0,0,1,.71-2.92c.1-.28.2-.53.28-.76a9.07,9.07,0,0,0,.7-2.4.28.28,0,0,0-.26-.3h0Z"/><path class="d" d="M26.38,27.76h0a.29.29,0,0,0-.25.3,9.07,9.07,0,0,0,.7,2.4c.08.23.17.48.28.76a11.31,11.31,0,0,1,.7,2.92.28.28,0,0,0,.29.26.29.29,0,0,0,.27-.29A12.15,12.15,0,0,0,27.63,31c-.1-.28-.2-.53-.28-.76A8.91,8.91,0,0,1,26.68,28a.27.27,0,0,0-.29-.25Z"/><path class="b" d="M18,38.32a4.32,4.32,0,0,1,3.54,2.78l1.27-1.55S22,37.62,20.65,37.2Z"/><path class="b" d="M18,38.32a4.32,4.32,0,0,0-3.54,2.78l-1.28-1.55s.76-1.93,2.15-2.35Z"/><path class="d" d="M20.74,36.88c1.53.44,2.33,2.44,2.36,2.54a.32.32,0,0,1-.05.34l-1.28,1.56a.31.31,0,0,1-.32.12.34.34,0,0,1-.25-.23,3.92,3.92,0,0,0-3.26-2.54.34.34,0,0,1-.29-.29.33.33,0,0,1,.2-.35l2.67-1.13h.13Zm.88,3.57.79-1a4,4,0,0,0-1.75-1.94L19,38.24A4.36,4.36,0,0,1,21.62,40.45Z"/><path class="d" d="M15.44,36.89,18.11,38a.33.33,0,0,1,.2.35.36.36,0,0,1-.3.29,3.93,3.93,0,0,0-3.25,2.54.36.36,0,0,1-.26.23.33.33,0,0,1-.32-.12l-1.27-1.55a.35.35,0,0,1-.06-.34,4.5,4.5,0,0,1,2.36-2.54h.1A.29.29,0,0,1,15.44,36.89Zm-1.1,3.56a4.35,4.35,0,0,1,2.58-2.21l-1.62-.69a3.89,3.89,0,0,0-1.75,1.94Z"/><path class="d" d="M18,40.45a20.68,20.68,0,0,0-3.6.32l.12.66a20.07,20.07,0,0,1,7,0l.12-.66A21.14,21.14,0,0,0,18,40.45Z"/><line class="i" x1="18.02" y1="38" x2="18.02" y2="31.72"/><circle class="e" cx="18.03" cy="33.44" r="0.21"/><circle class="e" cx="18.03" cy="35.71" r="0.21"/><circle class="e" cx="18.03" cy="37.99" r="0.21"/><path class="j" d="M93.91,66.07V47.38a1.27,1.27,0,0,0-1.27-1.27H76a1.25,1.25,0,0,0-1.16.78,1.16,1.16,0,0,0-.1.49V66.07a.34.34,0,0,0,.34.34h3.57v.06a20,20,0,0,0,2,7.1c.78,1.61,2.29,4,3.71,4s2.94-2.34,3.71-4a19.79,19.79,0,0,0,2-7.1v-.06h3.57A.34.34,0,0,0,93.91,66.07Zm-12.79.34h6.37v.4c0,2.34-1.56,5.15-1.43,6.3.2,1.63-.46,4-1.76,4s-2-2.32-1.76-4c.14-1.15-1.42-4-1.42-6.3Z"/><path class="e" d="M92.64,46.11a1.27,1.27,0,0,1,1.27,1.27V66.07a.34.34,0,0,1-.34.34H75a.34.34,0,0,1-.34-.34V47.38a1.25,1.25,0,0,1,1.25-1.27H92.64Z"/><path class="b" d="M74.7,55.24V47.38A1.25,1.25,0,0,1,76,46.11H92.64a1.27,1.27,0,0,1,1.27,1.27v7.86Z"/><path class="c" d="M84.3,77.52c1.42,0,2.94-2.34,3.71-4a19.79,19.79,0,0,0,2-7.1V46.08H87.49V66.8c0,2.35-1.56,5.16-1.43,6.31.2,1.63-.46,4-1.76,4s-2-2.32-1.76-4c.14-1.15-1.42-4-1.42-6.31V46.08H78.61V66.47a20,20,0,0,0,2,7.1C81.37,75.18,82.88,77.52,84.3,77.52Z"/><path class="g" d="M73.25,7.16c-1.31.76-5.51,3.79-6.53,4.53h0A30.17,30.17,0,0,1,64,21.54c-3,4.25-9.18,4.57-11,4.57a.21.21,0,0,1,.08.16c0,.2-.35.37-.78.37s-.79-.17-.79-.37a.26.26,0,0,1,.09-.16A10.17,10.17,0,0,1,45.7,24c-4.47-2.66-4.47-12-4.37-14.77a.93.93,0,0,1,.89-.89c1.22,0,3.37.08,5.11.2A20.74,20.74,0,0,1,51.45,5c1.92-1,4.45-2.58,9.11-.82s11.5,3.08,13.16,2C73.72,6.22,74.74,6.32,73.25,7.16Z"/><path class="e" d="M47.14,8.78A21.12,21.12,0,0,1,51.45,5c1.92-1,4.45-2.58,9.11-.82s11.5,3.08,13.16,2c0,0,1,.07-.47.94s-6.76,4.69-6.76,4.69Z"/><path class="c" d="M48.78,9A25.9,25.9,0,0,1,54.6,5.19c1.52-.56,2.71-.22,4.37.24l.55.16a85.29,85.29,0,0,0,12.15,2.6L72,8a80.73,80.73,0,0,1-12.4-2.65L59,5.16a11,11,0,0,0-2.84-.54,4.86,4.86,0,0,0-1.69.31,25.74,25.74,0,0,0-6,4Z"/><path class="e" d="M51.49,26.27c0-.21.35-.37.79-.37s.78.16.78.37-.35.37-.78.37S51.49,26.47,51.49,26.27Z"/><path class="b" d="M52.46,26.1s7.95.46,11.51-4.56a30,30,0,0,0,2.77-9.84A107.78,107.78,0,0,0,50,8.78s-1,8.88-1,9.93S48.82,25.74,52.46,26.1Z"/><path class="c" d="M45.7,24a10.25,10.25,0,0,0,7,2.11h-.26C48.8,25.77,49,19.78,49,18.74s1-9.93,1-9.93-5.55-.5-7.82-.42a.93.93,0,0,0-.89.89C41.23,12,41.23,21.32,45.7,24Z"/><path class="b" d="M84.69,23.09l-7.51-.41a1.52,1.52,0,0,0-1.44.87l-.38.85a.67.67,0,0,0,.37.87.65.65,0,0,0,.27.05h8.72Z"/><path class="k" d="M84.69,25.32h-8a6.66,6.66,0,0,1-.45-2.42,1.54,1.54,0,0,1,.89-.25l7.51.41Z"/><path class="b" d="M96,13.32l.68-7.48a1.5,1.5,0,0,1,1.07-1.3l.89-.26a.67.67,0,0,1,.85.74L98.2,13.65Z"/><path class="k" d="M98.2,13.65l1.17-7.87A6.84,6.84,0,0,0,97,5a1.52,1.52,0,0,0-.37.85L96,13.32Z"/><path class="d" d="M91.47,19.51c.29-.25.77-.73.29-1.3h0a8.47,8.47,0,0,1-1.32-2.37C88.8,11.62,90,9.76,92.69,7.57c1-.79,2.12-1.8,3.5-1.83s2.68.54,4.73,1.91a9.52,9.52,0,0,1,1.73,1.44h0a1.24,1.24,0,0,0,1.32.06.67.67,0,0,1,.76.19l.81.93a.71.71,0,0,1,.07.83,22.69,22.69,0,0,1-5.43,6c-2.74,2.24-5.73,4-6.63,4.79s-3.09,3.49-5.71,5.87a22.23,22.23,0,0,1-6.74,4.56.69.69,0,0,1-.81-.19l-.81-.93a.66.66,0,0,1-.07-.78,1.26,1.26,0,0,0,.13-1.32h0a9.15,9.15,0,0,1-1.17-1.91c-1.06-2.23-1.43-3.71-1.22-5s1.4-2.34,2.32-3.2C82,16.62,84,15.73,88,18a8.63,8.63,0,0,1,2.16,1.64h0C90.63,20.17,91.18,19.77,91.47,19.51Z"/><path class="c" d="M86.85,26.71c-2.45,2.27-5.14,4.5-7.16-.19-1.82-4.23-.78-5,.79-6.46s3.27-2.8,6.78-.82C91,21.32,90.37,23.43,86.85,26.71Z"/><path class="k" d="M86.85,26.71c-2.07,1.93-4.32,3.81-6.19,1.5,1.83,2,4,.15,6-1.71,2.69-2.5,3.68-4.3,2.36-5.95C90.61,22.26,89.65,24.11,86.85,26.71Z"/><path class="c" d="M99.26,16c2.6-2.09,5.19-4.43.85-7.1-3.93-2.42-4.82-1.5-6.51-.16s-3.25,2.83-1.79,6.6C93.36,19.32,95.5,19,99.26,16Z"/><path class="k" d="M99.26,16c2.2-1.77,4.4-3.72,2.38-5.9,1.69,2.09-.44,4-2.57,5.69-2.85,2.29-4.78,3-6.22,1.47C94.31,19.06,96.28,18.38,99.26,16Z"/><path class="l" d="M86.85,26.71c-2.45,2.27-5.14,4.5-7.16-.19-.27-.64-.48-1.2-.64-1.69l9,.66A10.53,10.53,0,0,1,86.85,26.71Z"/><path class="l" d="M102.41,12.16l-11-.8A5.82,5.82,0,0,1,93.6,8.72c1.69-1.34,2.58-2.26,6.51.16C102,10,102.57,11.12,102.41,12.16Z"/><path class="m" d="M124.23,25v6.42H114a1.29,1.29,0,0,1-1.29-1.29h0v-3.8A1.29,1.29,0,0,1,114,25h10.27Z"/><path class="m" d="M124.23,25H114V14.74a1.29,1.29,0,0,1,1.29-1.29h9Z"/><path class="m" d="M137,31.41H126.77V25H137a1.29,1.29,0,0,1,1.31,1.27v3.86A1.29,1.29,0,0,1,137,31.41h0"/><path class="m" d="M126.77,13.45h9A1.28,1.28,0,0,1,137,14.74V25H126.77Z"/><polygon class="n" points="126.81 31.76 126.8 31.77 124.24 31.77 124.23 13.46 126.8 13.45 126.81 31.76"/><path class="o" d="M125.52,34.79c-1.41,0-2.56-.86-2.56-1.92S124.11,31,125.52,31s2.56.86,2.56,1.92-1.15,1.92-2.56,1.92"/><path class="o" d="M123,32.87a2.12,2.12,0,0,0,.38,1.17,2.14,2.14,0,0,1-.65.35L118,36a1.13,1.13,0,0,1-.36.06.85.85,0,0,1-.84-.78l-.43-2.63a.82.82,0,0,1,.58-1,.75.75,0,0,1,.3,0H123a1.52,1.52,0,0,1,.42.06,2.12,2.12,0,0,0-.42,1.23"/><path class="o" d="M134.8,32.63l-.44,2.63a.83.83,0,0,1-.83.78,1.13,1.13,0,0,1-.36-.06l-4.74-1.59a2,2,0,0,1-.65-.35,2,2,0,0,0,0-2.4,1.4,1.4,0,0,1,.41-.06H134a.84.84,0,0,1,.91.75.77.77,0,0,1,0,.3"/></pattern></defs><title>why-background-cropped</title><rect class="p" width="666" height="443"/></svg>