<svg xmlns="http://www.w3.org/2000/svg" xmlns:xlink="http://www.w3.org/1999/xlink" width="9.25in" height="7in" viewBox="0 0 666 504"><defs><style>.a,.f,.g,.h,.i{fill:none;}.b{fill:#ff4713;}.c,.j{fill:#00c4b3;}.d{fill:#3a2b1e;}.e{fill:#eba900;}.f,.g,.h,.i,.j{stroke:#3a2b1e;}.f,.g,.h,.i,.j,.m,.n,.o{stroke-miterlimit:10;}.f{stroke-width:0.89px;}.g{stroke-width:1.78px;}.h{stroke-width:0.47px;}.i{stroke-width:0.67px;}.j{stroke-width:1.58px;}.k{fill:#010101;opacity:0.2;}.k,.l{isolation:isolate;}.l,.n{fill:#fff;}.l{opacity:0.1;}.m{fill:#00619d;}.m,.n,.o{stroke:#414042;stroke-width:1.05px;}.o{fill:#f47b20;}.p{fill:url(#a);}</style><pattern id="a" x="-0.01" y="-0.01" width="165.87" height="86.32" patternUnits="userSpaceOnUse" viewBox="0 0 165.87 86.32"><rect class="a" width="165.87" height="86.32"/><path class="b" d="M145.85,47.4l1.49,3.39,1.3-.57-1.49-3.39Zm0,0"/><path class="b" d="M156.1,72.11a.42.42,0,0,0-.56-.22l-.65.28-7.62-17.31,4.42-2,7.62,17.32-2.21,1a.43.43,0,0,0-.22.56Zm0,0"/><path class="c" d="M147.29,51.74l2.09-.91,1.17-.52.8,1.82-4.43,1.95-.8-1.82,1.17-.52Zm0,0"/><path class="d" d="M145.12,46.8l2.08-.92a.41.41,0,0,1,.56.22l1.66,3.77,1.18-.51a.4.4,0,0,1,.32,0,.42.42,0,0,1,.24.23l1,2.25a2.15,2.15,0,0,1,2.4,1.22l3.3,7.49a.43.43,0,0,1-.22.56.42.42,0,0,1-.33,0,.4.4,0,0,1-.23-.23l-3.3-7.48a1.28,1.28,0,0,0-.71-.68,1.32,1.32,0,0,0-.55-.08l7.76,17.63h0v.09h0l1,5.78a.44.44,0,0,1-.25.47l-.15.06.41.93a1.26,1.26,0,0,1-.65,1.66,1.23,1.23,0,0,1-1,0,1.21,1.21,0,0,1-.69-.66l-.42-.93-.15.06a.4.4,0,0,1-.32,0,.43.43,0,0,1-.19-.14L154.33,73h0l0,0h0v0h0l-9.11-20.7a.42.42,0,0,1,.22-.56l1.17-.52-1.66-3.77a.41.41,0,0,1,.22-.56Zm15.19,31.69a.38.38,0,0,0,.21-.22.42.42,0,0,0,0-.31l-.41-.93-.74.32.41.93a.4.4,0,0,0,.22.22.42.42,0,0,0,.31,0Zm.08-2.52-.84-4.91-2.11.92a.4.4,0,0,1-.32,0,.45.45,0,0,1-.24-.23.43.43,0,0,1,.22-.56l2.21-1-7.62-17.32-4.42,2,7.62,17.31.65-.28a.43.43,0,1,1,.34.78l-.54.24,3,3.94ZM146.92,54.08l4.43-1.95-.8-1.82-4.43,1.95Zm1.72-3.86-1.49-3.39-1.3.57,1.49,3.39Zm0,0"/><path class="c" d="M159.37,77.35l.74-.32.41.93a.42.42,0,0,1,0,.31.38.38,0,0,1-.21.22.42.42,0,0,1-.31,0,.4.4,0,0,1-.22-.22Zm0,0"/><path class="e" d="M155.34,72.91l.54-.24a.42.42,0,0,0,.22-.56l.78-.35a.45.45,0,0,0,.24.23.4.4,0,0,0,.32,0l2.11-.92.84,4.91-2,.88Zm0,0"/><path class="b" d="M108.72,18.44a1.81,1.81,0,0,0,0-2.58h14a1.81,1.81,0,0,0,0,2.58Z"/><path class="c" d="M122.74,18.44V35.78a1.38,1.38,0,0,1-1.38,1.38H110.1a1.38,1.38,0,0,1-1.38-1.38V18.44Z"/><path class="c" d="M121.16,9.25H110.3a1.58,1.58,0,0,0-1.58,1.58v5h14v-5A1.58,1.58,0,0,0,121.16,9.25Z"/><path class="e" d="M111.49,25.11V18.44h-2.77v6.32h0v11a1.38,1.38,0,0,0,1.38,1.38h5.84C112.09,35.71,111.55,28.1,111.49,25.11Z"/><path class="e" d="M113.07,9.25a1.58,1.58,0,0,0-1.58,1.58v5h-2.77v-5a1.58,1.58,0,0,1,1.58-1.58Z"/><path class="c" d="M119.19,7.29h-6.92A1.32,1.32,0,0,0,111,8.61v.64h9.56V8.61A1.32,1.32,0,0,0,119.19,7.29Z"/><path class="e" d="M115.14,7.29h-2.87A1.32,1.32,0,0,0,111,8.61v.64h2.87V8.61A1.32,1.32,0,0,1,115.14,7.29Z"/><rect class="b" x="113.91" y="3.66" width="3.63" height="3.63"/><rect class="e" x="113.91" y="3.66" width="1.82" height="3.63"/><path class="b" d="M117.35,26l-1.62-1.62L114.11,26a2.3,2.3,0,0,0,0,3.24h0a2.3,2.3,0,0,0,3.24,0h0A2.3,2.3,0,0,0,117.35,26Z"/><path class="d" d="M123.25,10.83v5a.51.51,0,0,1-.15.36,1.32,1.32,0,0,0,0,1.86.51.51,0,0,1,.15.36V35.78a1.89,1.89,0,0,1-1.89,1.89H110.1a1.89,1.89,0,0,1-1.89-1.89V32.51a.52.52,0,0,1,1,0v3.27a.86.86,0,0,0,.86.87h11.26a.87.87,0,0,0,.87-.87V19h-2.9a.51.51,0,1,1,0-1h2.49a2.45,2.45,0,0,1,0-1.56H109.64a2.45,2.45,0,0,1,0,1.56h8a.51.51,0,1,1,0,1h-8.38V30.67a.52.52,0,0,1-1,0V18.44a.51.51,0,0,1,.15-.36,1.32,1.32,0,0,0,0-1.86.51.51,0,0,1-.15-.36v-5a2.1,2.1,0,0,1,2.09-2.09h.13V8.61a1.84,1.84,0,0,1,1.84-1.83h1.13V6h-.13a.52.52,0,0,1,0-1h.13V4.17h-.09a.51.51,0,1,1,0-1h4.84a.51.51,0,1,1,0,1h-.09V5h3.72a1.65,1.65,0,1,1,0,3.29H121a2.2,2.2,0,0,1,0,.36v.13h.13A2.1,2.1,0,0,1,123.25,10.83ZM118.06,6v.79h1.13a1.82,1.82,0,0,1,1.2.45h1.39a.62.62,0,1,0,0-1.24Zm-3.63-1.82V5H117V4.17Zm0,1.82v.79H117V6Zm-3,2.75H120V8.61a.8.8,0,0,0-.81-.8h-6.92a.8.8,0,0,0-.81.8Zm-2.22,6.6h13V10.83a1.07,1.07,0,0,0-1.07-1.07H110.3a1.06,1.06,0,0,0-1.06,1.07Z"/><path class="d" d="M115.73,30.44a2.8,2.8,0,0,1-2-4.78L115.37,24a.51.51,0,0,1,.72,0l1.62,1.62a2.8,2.8,0,0,1-2,4.78ZM117,28.9a1.79,1.79,0,0,0,0-2.52l-1.26-1.25-1.26,1.25A1.78,1.78,0,1,0,117,28.9Z"/><polygon class="d" points="3.31 4.93 8.11 4.93 8.11 6.38 4.96 6.38 4.96 31.25 8.11 31.25 8.11 32.7 3.31 32.7 3.31 4.93"/><polygon class="d" points="31.92 31.34 35.16 31.34 35.16 6.29 31.92 6.29 31.92 4.93 36.72 4.93 36.72 32.7 31.92 32.7 31.92 31.34"/><path class="b" d="M11,10h.47c.35,0,.79.06.79.48s-.32.5-.65.5H11ZM10,13.34H11V11.72h.67c.88,0,1.55-.3,1.55-1.28s-.72-1.26-1.59-1.26H10Z"/><path class="b" d="M14.34,10h.6c.34,0,.71.06.71.48s-.43.46-.77.46h-.54Zm-.92,3.38h.92V11.68h.45l.88,1.66h1.1l-1.06-1.75a1.08,1.08,0,0,0,.9-1.15c0-1-.72-1.26-1.58-1.26H13.42Z"/><path class="b" d="M18.69,12.6a1.2,1.2,0,0,1-1.17-1.34,1.18,1.18,0,1,1,2.34,0,1.21,1.21,0,0,1-1.17,1.34m0-3.52a2,2,0,0,0-2,2.18,2,2,0,1,0,4.06,0,2,2,0,0,0-2-2.18"/><polygon class="b" points="21.02 9.18 22.41 9.18 23.37 11.9 23.39 11.9 24.35 9.18 25.74 9.18 25.74 13.34 24.82 13.34 24.82 10.15 24.81 10.15 23.71 13.34 23.01 13.34 21.95 10.15 21.94 10.15 21.94 13.34 21.02 13.34 21.02 9.18"/><path class="b" d="M28,12.6a1.2,1.2,0,0,1-1.17-1.34,1.18,1.18,0,1,1,2.33,0A1.2,1.2,0,0,1,28,12.6m0-3.52a2,2,0,0,0-2,2.18,2,2,0,1,0,4,0,2,2,0,0,0-2-2.18"/><path class="e" d="M11.58,19h1.13c.49,0,1.2.1,1.2.74s-.52.79-1,.79H11.58Zm0-2.71h1c.47,0,1,.15,1,.71s-.48.74-.94.74H11.58Zm-1.5,5.51h2.78c1.21,0,2.55-.47,2.55-1.89a1.62,1.62,0,0,0-1.49-1.65v0a1.52,1.52,0,0,0,1.17-1.49c0-1.47-1.29-1.72-2.48-1.72H10.08Z"/><path class="e" d="M19.48,20.63a2,2,0,0,1-2.11-2.18,2.11,2.11,0,1,1,4.22,0,2.05,2.05,0,0,1-2.11,2.18m0-5.73a3.43,3.43,0,0,0-3.67,3.55A3.44,3.44,0,0,0,19.48,22a3.43,3.43,0,0,0,3.66-3.56,3.43,3.43,0,0,0-3.66-3.55"/><polygon class="e" points="25.25 18.3 23 15.07 24.88 15.07 26.33 17.44 27.72 15.07 29.53 15.07 27.34 18.27 29.79 21.84 27.91 21.84 26.25 19.11 24.64 21.84 22.87 21.84 25.25 18.3"/><path class="c" d="M13.91,24.85a1.34,1.34,0,0,0-1.06-.46,1.65,1.65,0,0,0-1.61,1.79A1.64,1.64,0,0,0,12.81,28,1.32,1.32,0,0,0,14,27.37l1,.76a2.42,2.42,0,0,1-2,1,2.92,2.92,0,1,1,0-5.83,2.38,2.38,0,0,1,1.88.82Z"/><polygon class="c" points="15.7 23.4 16.93 23.4 16.93 27.82 19.2 27.82 19.2 28.95 15.7 28.95 15.7 23.4"/><path class="c" d="M24.38,26.81A2.14,2.14,0,0,1,22,29.09a2.15,2.15,0,0,1-2.35-2.28V23.4h1.22v3.37a1.13,1.13,0,1,0,2.25,0V23.4h1.22Z"/><path class="c" d="M26.8,26.66h.93c.4,0,1,.08,1,.61s-.44.65-.82.65H26.8Zm0-2.22h.83c.39,0,.83.12.83.58s-.4.6-.77.6H26.8ZM25.57,29h2.28c1,0,2.09-.38,2.09-1.54a1.33,1.33,0,0,0-1.22-1.36h0a1.25,1.25,0,0,0,1-1.23c0-1.2-1.06-1.41-2-1.41H25.57Z"/><path class="e" d="M158,10.47a1.29,1.29,0,0,1,1.28,1.29V36.59A1.29,1.29,0,0,1,158,37.88H139.13a1.29,1.29,0,0,1-1.29-1.29V11.76a1.29,1.29,0,0,1,1.29-1.29Zm0,0"/><path class="b" d="M140.41,37.88h-1.72a1.29,1.29,0,0,1-1.29-1.29V11.76a1.29,1.29,0,0,1,1.29-1.29h1.72Zm0-27.41"/><path class="f" d="M158,10.47H138.69a1.29,1.29,0,0,0-1.29,1.29V36.59a1.29,1.29,0,0,0,1.29,1.29H158a1.29,1.29,0,0,0,1.28-1.29V11.76A1.29,1.29,0,0,0,158,10.47Z"/><path class="d" d="M138.27,13.9a.43.43,0,0,0,.43-.43.43.43,0,0,0-.43-.43h-1.73a.43.43,0,0,0-.42.43.42.42,0,0,0,.42.43Zm0,0"/><path class="d" d="M138.27,16a.43.43,0,0,0,.43-.43.43.43,0,0,0-.43-.43h-1.73a.43.43,0,0,0-.42.43.42.42,0,0,0,.42.43Zm0,0"/><path class="d" d="M138.27,18.18a.43.43,0,1,0,0-.85h-1.73a.43.43,0,0,0,0,.85Zm0,0"/><path class="d" d="M138.27,20.32a.43.43,0,1,0,0-.85h-1.73a.43.43,0,0,0,0,.85Zm0,0"/><path class="d" d="M138.27,22.46a.43.43,0,1,0,0-.85h-1.73a.43.43,0,0,0,0,.85Zm0,0"/><path class="d" d="M138.27,24.6a.43.43,0,1,0,0-.85h-1.73a.43.43,0,0,0,0,.85Zm0,0"/><path class="d" d="M138.27,26.75a.43.43,0,0,0,.43-.43.43.43,0,0,0-.43-.43h-1.73a.42.42,0,0,0-.42.43.43.43,0,0,0,.42.43Zm0,0"/><path class="d" d="M138.27,28.89a.43.43,0,0,0,.43-.43.43.43,0,0,0-.43-.43h-1.73a.42.42,0,0,0-.42.43.43.43,0,0,0,.42.43Zm0,0"/><path class="d" d="M138.27,31a.43.43,0,0,0,0-.86h-1.73a.43.43,0,0,0,0,.86Zm0,0"/><path class="d" d="M138.27,33.17a.43.43,0,0,0,0-.86h-1.73a.43.43,0,0,0,0,.86Zm0,0"/><path class="d" d="M138.27,35.31a.43.43,0,1,0,0-.86h-1.73a.43.43,0,0,0,0,.86Zm0,0"/><path class="c" d="M140.41,36.3a.41.41,0,0,0,.43-.4V12.43a.43.43,0,0,0-.86,0V35.9a.41.41,0,0,0,.43.4Zm0,0"/><path class="g" d="M59.58,41.26v6.83a.38.38,0,0,1-.38.38H49.56a.38.38,0,0,1-.38-.38V41.26a.38.38,0,0,1,.38-.38h4.21V40.1h-.61a.38.38,0,0,1-.38-.38v-.27a.39.39,0,0,1,.38-.39h-.06V37.29h0L47,15.1,49,12.93H59.79l1.92,2.17L55.64,37.29h0v1.77h-.06a.39.39,0,0,1,.38.39v.27a.38.38,0,0,1-.38.38h-.66v.78H59.2A.38.38,0,0,1,59.58,41.26Zm-5.2-8.58,4.76-17.39H49.61Z"/><path class="b" d="M59.58,41.26v6.83a.38.38,0,0,1-.38.38H49.56a.38.38,0,0,1-.38-.38V41.26a.38.38,0,0,1,.38-.38H59.2A.38.38,0,0,1,59.58,41.26Zm-6,.25Z"/><rect class="c" x="49.64" y="42.44" width="9.45" height="5.55" rx="0.38" ry="0.38"/><rect class="c" x="49.18" y="41.98" width="10.4" height="0.27"/><line class="e" x1="52.68" y1="43.51" x2="58.61" y2="43.51"/><rect class="e" x="52.68" y="43.48" width="5.93" height="0.07"/><line class="e" x1="52.68" y1="44.23" x2="58.61" y2="44.23"/><rect class="e" x="52.68" y="44.19" width="5.93" height="0.07"/><line class="e" x1="52.68" y1="44.94" x2="58.61" y2="44.94"/><rect class="e" x="52.68" y="44.91" width="5.93" height="0.07"/><line class="e" x1="52.68" y1="45.65" x2="58.61" y2="45.65"/><rect class="e" x="52.68" y="45.62" width="5.93" height="0.07"/><line class="e" x1="52.68" y1="46.37" x2="58.61" y2="46.37"/><rect class="e" x="52.68" y="46.33" width="5.93" height="0.07"/><line class="e" x1="50.05" y1="47.1" x2="58.59" y2="47.1"/><rect class="e" x="50.05" y="47.06" width="8.55" height="0.07"/><rect class="e" x="50.05" y="42.83" width="2.36" height="3.54" rx="0.38" ry="0.38"/><rect class="e" x="48.97" y="12.93" width="10.82" height="2.37"/><polygon class="b" points="59.79 12.93 61.71 15.11 55.64 37.29 53.11 37.29 59.79 12.93"/><polygon class="b" points="48.96 12.93 47.04 15.11 53.11 37.29 55.64 37.29 48.96 12.93"/><rect class="e" x="53.11" y="37.29" width="2.53" height="1.78"/><rect class="e" x="53.77" y="39.86" width="1.15" height="1.97" rx="0.26" ry="0.26"/><rect class="c" x="52.79" y="39.06" width="3.17" height="1.04" rx="0.38" ry="0.38"/><path class="c" d="M54.62,41.34a.27.27,0,1,1-.27-.27A.27.27,0,0,1,54.62,41.34Z"/><path class="h" d="M30.57,51.86c-.9-2.11-2-3.65-4.37-4.3A24.87,24.87,0,0,1,23,46.5L21.77,45a.33.33,0,0,0-.31-.12h0a19.85,19.85,0,0,1-7,0h0a.35.35,0,0,0-.32.12L13,46.5a25.31,25.31,0,0,1-3.21,1.06c-2.38.65-3.47,2.19-4.36,4.3s-1.2,6.88-1.21,7.07a.33.33,0,0,0,.23.34,14.77,14.77,0,0,0,5,.79,89.06,89.06,0,0,1,0,11c-.44,6.31-.55,7.11-.55,7.13a.34.34,0,0,0,.26.39,58,58,0,0,0,8.87.88,57.61,57.61,0,0,0,8.86-.88.34.34,0,0,0,.27-.38s-.12-.83-.55-7.14a89.06,89.06,0,0,1,0-11,14.83,14.83,0,0,0,5-.79.35.35,0,0,0,.23-.34C31.77,58.74,31.51,54.07,30.57,51.86Z"/><path class="b" d="M14.44,45.22a20,20,0,0,0,7.08,0s1.37,4.14-2,4.64A4.17,4.17,0,0,1,14.44,45.22Z"/><path class="c" d="M26.6,59.73A14.68,14.68,0,0,0,31.45,59s-.26-4.77-1.19-7-2-3.51-4.14-4.11a23.73,23.73,0,0,1-3.33-1.11L18,48l-4.82-1.23a23.82,23.82,0,0,1-3.32,1.11c-2.18.6-3.22,1.93-4.14,4.11s-1.19,7-1.19,7a14.68,14.68,0,0,0,4.85.78l.22-1.45a90.53,90.53,0,0,1,.15,12.79c-.44,6.5-.56,7.17-.56,7.17a56.91,56.91,0,0,0,8.81.88,56.88,56.88,0,0,0,8.8-.88s-.11-.67-.55-7.17a88.81,88.81,0,0,1,.15-12.79Z"/><path class="d" d="M26.84,78.57a.34.34,0,0,0,.27-.38s-.12-.83-.55-7.14a89.06,89.06,0,0,1,0-11,14.83,14.83,0,0,0,5-.79.35.35,0,0,0,.23-.34c0-.19-.27-4.86-1.21-7.07s-2-3.65-4.37-4.3a22.62,22.62,0,0,1-3.27-1.09.33.33,0,0,0-.22,0L18,47.65l-4.73-1.2a.32.32,0,0,0-.22,0,23.12,23.12,0,0,1-3.28,1.09c-2.38.65-3.47,2.19-4.36,4.3s-1.2,6.88-1.21,7.07a.33.33,0,0,0,.23.34,14.77,14.77,0,0,0,5,.79,89.06,89.06,0,0,1,0,11c-.43,6.31-.55,7.11-.55,7.13a.34.34,0,0,0,.26.39,58,58,0,0,0,8.87.88A57.61,57.61,0,0,0,26.84,78.57ZM10.06,71.09a90.46,90.46,0,0,0-.15-12.84.33.33,0,0,0-.32-.3.34.34,0,0,0-.34.28l-.18,1.19a14.66,14.66,0,0,1-4.21-.71A26.84,26.84,0,0,1,6,52.12c.84-2,1.8-3.34,3.93-3.91a26.87,26.87,0,0,0,3.26-1.08l4.71,1.19h.16l4.71-1.19A26.87,26.87,0,0,0,26,48.21c2.13.57,3.08,1.92,3.93,3.91a26.84,26.84,0,0,1,1.14,6.59,14.66,14.66,0,0,1-4.21.71l-.18-1.19a.34.34,0,0,0-.67,0,91.32,91.32,0,0,0-.14,12.84c.31,4.57.46,6.26.52,6.88a56,56,0,0,1-8.44.82A56,56,0,0,1,9.54,78C9.6,77.35,9.75,75.66,10.06,71.09Z"/><path class="d" d="M9.58,58.56a.29.29,0,0,1-.28-.25,8.4,8.4,0,0,0-.66-2.26c-.09-.23-.18-.48-.28-.76a11.6,11.6,0,0,1-.74-3.08.28.28,0,0,1,.26-.29.27.27,0,0,1,.29.26h0a12,12,0,0,0,.71,2.92c.1.28.2.53.28.76a9,9,0,0,1,.7,2.4.28.28,0,0,1-.26.3Z"/><path class="d" d="M26.38,58.56h0a.28.28,0,0,1-.25-.3,9,9,0,0,1,.7-2.4c.08-.23.17-.48.28-.76a11.08,11.08,0,0,0,.7-2.92.28.28,0,0,1,.29-.26.29.29,0,0,1,.27.29,12.11,12.11,0,0,1-.74,3.08c-.1.28-.2.53-.28.76a9,9,0,0,0-.67,2.26A.27.27,0,0,1,26.38,58.56Z"/><path class="b" d="M18,48a4.32,4.32,0,0,0,3.54-2.78l1.27,1.55S22,48.7,20.65,49.12Z"/><path class="b" d="M18,48a4.32,4.32,0,0,1-3.54-2.78l-1.28,1.55s.76,1.93,2.15,2.35Z"/><path class="d" d="M20.74,49.44C22.27,49,23.07,47,23.1,46.9a.32.32,0,0,0-.05-.34L21.77,45a.32.32,0,0,0-.32-.12.34.34,0,0,0-.25.23,3.93,3.93,0,0,1-3.26,2.54.34.34,0,0,0-.29.29.33.33,0,0,0,.2.35l2.67,1.13a.28.28,0,0,0,.13,0Zm.88-3.57.79,1a4,4,0,0,1-1.75,1.94L19,48.08A4.35,4.35,0,0,0,21.62,45.87Z"/><path class="d" d="M15.44,49.43l2.67-1.13a.33.33,0,0,0,.2-.35.35.35,0,0,0-.3-.29,3.93,3.93,0,0,1-3.25-2.54.36.36,0,0,0-.26-.23.33.33,0,0,0-.32.12l-1.27,1.55a.35.35,0,0,0-.06.34c0,.08.84,2.08,2.36,2.54l.1,0A.31.31,0,0,0,15.44,49.43Zm-1.1-3.56a4.35,4.35,0,0,0,2.58,2.21l-1.62.69a3.92,3.92,0,0,1-1.75-1.94Z"/><path class="d" d="M18,45.87a20.85,20.85,0,0,1-3.6-.32l.12-.66a19.85,19.85,0,0,0,7,0l.12.66A20.85,20.85,0,0,1,18,45.87Z"/><line class="i" x1="18.02" y1="48.32" x2="18.02" y2="54.6"/><circle class="e" cx="18.03" cy="52.88" r="0.21"/><circle class="e" cx="18.03" cy="50.61" r="0.21"/><circle class="e" cx="18.03" cy="48.33" r="0.21"/><path class="j" d="M93.91,20.25V38.94a1.27,1.27,0,0,1-1.27,1.27H76a1.26,1.26,0,0,1-1.16-.78,1.16,1.16,0,0,1-.1-.49V20.25a.34.34,0,0,1,.34-.34h3.57v-.06a20,20,0,0,1,2-7.1c.78-1.61,2.29-3.95,3.71-3.95s2.94,2.34,3.71,3.95a19.82,19.82,0,0,1,2,7.1v.06h3.57A.34.34,0,0,1,93.91,20.25Zm-12.79-.34h6.37v-.4c0-2.34-1.56-5.15-1.43-6.3.2-1.63-.46-4-1.76-4s-2,2.32-1.76,4c.14,1.15-1.42,4-1.42,6.3Z"/><path class="e" d="M92.64,40.21a1.27,1.27,0,0,0,1.27-1.27V20.25a.34.34,0,0,0-.34-.34H75a.34.34,0,0,0-.34.34V38.94A1.26,1.26,0,0,0,76,40.21Z"/><path class="b" d="M74.7,31.08v7.86A1.26,1.26,0,0,0,76,40.21H92.64a1.27,1.27,0,0,0,1.27-1.27V31.08Z"/><path class="c" d="M84.3,8.8c1.42,0,2.94,2.34,3.71,3.95a19.82,19.82,0,0,1,2,7.1V40.24H87.49V19.52c0-2.35-1.56-5.16-1.43-6.31.2-1.63-.46-4-1.76-4s-2,2.32-1.76,4c.14,1.15-1.42,4-1.42,6.31V40.24H78.61V19.85a20,20,0,0,1,2-7.1C81.37,11.14,82.88,8.8,84.3,8.8Z"/><path class="g" d="M73.25,79.16c-1.31-.76-5.51-3.79-6.53-4.53h0A30,30,0,0,0,64,64.78c-3-4.25-9.18-4.57-11-4.57a.23.23,0,0,0,.08-.16c0-.2-.35-.37-.78-.37s-.79.17-.79.37a.24.24,0,0,0,.09.16A10.13,10.13,0,0,0,45.7,62.3c-4.47,2.66-4.47,12-4.37,14.77a.92.92,0,0,0,.89.89c1.22,0,3.37-.08,5.11-.2a20.42,20.42,0,0,0,4.12,3.53c1.92,1,4.45,2.58,9.11.82s11.5-3.08,13.16-2C73.72,80.1,74.74,80,73.25,79.16Z"/><path class="e" d="M47.14,77.54a21.49,21.49,0,0,0,4.31,3.75c1.92,1,4.45,2.58,9.11.82s11.5-3.08,13.16-2c0,0,1-.07-.47-.94s-6.76-4.69-6.76-4.69Z"/><path class="c" d="M48.78,77.28a25.87,25.87,0,0,0,5.82,3.85c1.52.56,2.71.22,4.37-.24l.55-.16a85.9,85.9,0,0,1,12.15-2.6l.32.22A80.38,80.38,0,0,0,59.59,81l-.55.16a10.94,10.94,0,0,1-2.84.54,4.82,4.82,0,0,1-1.69-.31,25.89,25.89,0,0,1-6-4Z"/><path class="e" d="M51.49,60.05c0,.21.35.37.79.37s.78-.16.78-.37-.35-.37-.78-.37S51.49,59.85,51.49,60.05Z"/><path class="b" d="M52.46,60.22s7.95-.46,11.51,4.56a30,30,0,0,1,2.77,9.84A107.73,107.73,0,0,1,50,77.54S49,68.66,49,67.61,48.82,60.58,52.46,60.22Z"/><path class="c" d="M45.7,62.3a10.22,10.22,0,0,1,7-2.11h0l-.26,0c-3.64.36-3.41,6.35-3.46,7.39s1,9.93,1,9.93-5.55.5-7.82.42a.92.92,0,0,1-.89-.89C41.23,74.3,41.23,65,45.7,62.3Z"/><path class="b" d="M84.69,63.23l-7.51.41a1.52,1.52,0,0,1-1.44-.87l-.38-.85A.67.67,0,0,1,76,61l8.72,0Z"/><path class="k" d="M84.69,61l-8,0a6.8,6.8,0,0,0-.45,2.42,1.54,1.54,0,0,0,.89.25l7.51-.41Z"/><path class="b" d="M96,73l.68,7.48a1.5,1.5,0,0,0,1.07,1.3l.89.26a.67.67,0,0,0,.85-.74L98.2,72.67Z"/><path class="k" d="M98.2,72.67l1.17,7.87a7,7,0,0,1-2.33.79,1.53,1.53,0,0,1-.37-.85L96,73Z"/><path class="d" d="M91.47,66.81c.29.25.77.73.29,1.3h0a8.47,8.47,0,0,0-1.32,2.37c-1.64,4.22-.47,6.08,2.25,8.27,1,.79,2.12,1.8,3.5,1.83s2.68-.54,4.73-1.91a9.63,9.63,0,0,0,1.73-1.44h0a1.23,1.23,0,0,1,1.32-.06.67.67,0,0,0,.76-.19l.81-.93a.72.72,0,0,0,.07-.83,22.67,22.67,0,0,0-5.43-6c-2.74-2.24-5.73-4-6.63-4.79s-3.09-3.49-5.71-5.87A22.27,22.27,0,0,0,81.1,54a.69.69,0,0,0-.81.19l-.81.93a.66.66,0,0,0-.07.78,1.27,1.27,0,0,1,.13,1.32h0a9.2,9.2,0,0,0-1.17,1.91c-1.06,2.23-1.43,3.71-1.22,5s1.4,2.34,2.32,3.2C82,69.7,84,70.59,88,68.35a8.6,8.6,0,0,0,2.16-1.64h0C90.63,66.15,91.18,66.55,91.47,66.81Z"/><path class="c" d="M86.85,59.61c-2.45-2.27-5.14-4.5-7.16.19-1.82,4.23-.78,5,.79,6.46s3.27,2.8,6.78.82C91,65,90.37,62.89,86.85,59.61Z"/><path class="k" d="M86.85,59.61c-2.07-1.93-4.32-3.81-6.19-1.5,1.83-2,4-.15,6,1.71,2.69,2.5,3.68,4.3,2.36,5.95C90.61,64.06,89.65,62.21,86.85,59.61Z"/><path class="c" d="M99.26,70.34c2.6,2.09,5.19,4.43.85,7.1-3.93,2.42-4.82,1.5-6.51.16S90.35,74.77,91.81,71C93.36,67,95.5,67.32,99.26,70.34Z"/><path class="k" d="M99.26,70.34c2.2,1.77,4.4,3.72,2.38,5.9,1.69-2.09-.44-4-2.57-5.69-2.85-2.29-4.78-3-6.22-1.47C94.31,67.26,96.28,67.94,99.26,70.34Z"/><path class="l" d="M86.85,59.61c-2.45-2.27-5.14-4.5-7.16.19-.27.64-.48,1.2-.64,1.69l9-.66C87.72,60.44,87.31,60,86.85,59.61Z"/><path class="l" d="M102.41,74.16l-11,.8A5.77,5.77,0,0,0,93.6,77.6c1.69,1.34,2.58,2.26,6.51-.16C102,76.29,102.57,75.2,102.41,74.16Z"/><path class="m" d="M124.23,61.33V54.91H114a1.29,1.29,0,0,0-1.29,1.29V60A1.29,1.29,0,0,0,114,61.33Z"/><path class="m" d="M124.23,61.33H114V71.58a1.29,1.29,0,0,0,1.29,1.29h9Z"/><path class="m" d="M137,54.91H126.77v6.42H137A1.29,1.29,0,0,0,138.31,60V56.2A1.29,1.29,0,0,0,137,54.91"/><path class="m" d="M126.77,72.87h9A1.28,1.28,0,0,0,137,71.58V61.33H126.77Z"/><polygon class="n" points="126.81 54.56 126.8 54.55 124.24 54.55 124.23 72.86 126.8 72.87 126.81 54.56"/><path class="o" d="M125.52,51.53c-1.41,0-2.56.86-2.56,1.92s1.15,1.92,2.56,1.92,2.56-.86,2.56-1.92-1.15-1.92-2.56-1.92"/><path class="o" d="M123,53.45a2.12,2.12,0,0,1,.38-1.17,2.16,2.16,0,0,0-.65-.35L118,50.34a1.13,1.13,0,0,0-.36-.06.85.85,0,0,0-.84.78l-.43,2.63a.83.83,0,0,0,.88,1.05H123a1.93,1.93,0,0,0,.42-.06,2.12,2.12,0,0,1-.42-1.23"/><path class="o" d="M134.8,53.69l-.44-2.63a.84.84,0,0,0-.83-.78,1.13,1.13,0,0,0-.36.06l-4.74,1.59a2,2,0,0,0-.65.35,2,2,0,0,1,0,2.4,1.84,1.84,0,0,0,.41.06h5.77a.83.83,0,0,0,.88-1.05"/></pattern></defs><title>why-join-background-image</title><rect class="p" width="666" height="504"/></svg>