<svg xmlns="http://www.w3.org/2000/svg" width="479.05" height="236.77" viewBox="0 0 479.05 236.77"><defs><style>.a{fill:#392a1d;}.b{fill:#fff;}.c{fill:#eba900;}</style></defs><title>icon-grow</title><polygon class="a" points="7.76 201.94 7.76 235.44 0 235.44 0 118.21 7.76 118.21 7.76 201.94"/><rect class="a" x="0.28" y="230.31" width="33.27" height="6.46"/><rect class="a" x="0.28" y="116.78" width="33.27" height="6.46"/><polygon class="a" points="132.24 151.61 132.24 118.11 140 118.11 140 235.34 132.24 235.34 132.24 151.61"/><rect class="a" x="568.33" y="377" width="33.27" height="6.46" transform="translate(708.05 500.24) rotate(-180)"/><rect class="a" x="568.33" y="490.54" width="33.27" height="6.46" transform="translate(708.05 727.31) rotate(-180)"/><path class="b" d="M546.79,449.12h-5.16V458h-8.82v-8.88H515.12v-6.3l18.19-27.65h8.32v26.92h5.16Zm-14-7v-7.26c0-.26,0-.62,0-1.1s0-1,0-1.63,0-1.23.07-1.87.06-1.26.09-1.85.06-1.1.09-1.54,0-.75.07-.95h-.26c-.35.82-.75,1.69-1.19,2.61a28.81,28.81,0,0,1-1.51,2.75l-7.14,10.84Z" transform="translate(-461.88 -260.22)"/><path class="c" d="M839.84,273.29l5.3,53-13.25-13.25L773.55,371.4l-31.82-31.82,58.34-58.33L786.81,268Zm0,0" transform="translate(-461.88 -260.22)"/><rect class="a" x="439.37" y="41.66" width="19.84" height="194.47"/><rect class="c" x="403.61" y="67.46" width="19.84" height="168.66"/><rect class="a" x="328.15" y="136.92" width="19.84" height="99.21"/><rect class="c" x="459.2" width="19.85" height="236.12"/><rect class="a" x="383.76" y="87.3" width="19.85" height="148.82"/><rect class="c" x="347.99" y="117.07" width="19.85" height="119.06"/></svg>