<svg xmlns="http://www.w3.org/2000/svg" width="480.02" height="236.71" viewBox="0 0 480.02 236.71"><defs><style>.a{fill:#392a1d;}.b{fill:#fff;}.c{fill:#eba900;}</style></defs><title>icon-shopping</title><path class="a" d="M768,459.6a11.25,11.25,0,1,0,11.25,11.25A11.27,11.27,0,0,0,768,459.6Zm0,15a3.75,3.75,0,1,1,3.75-3.75A3.75,3.75,0,0,1,768,474.6Zm0,0" transform="translate(-461.88 -260.29)"/><path class="a" d="M891.75,459.6A11.25,11.25,0,1,0,903,470.85a11.27,11.27,0,0,0-11.25-11.25Zm0,15a3.75,3.75,0,1,1,3.75-3.75,3.75,3.75,0,0,1-3.75,3.75Zm0,0" transform="translate(-461.88 -260.29)"/><polygon class="a" points="7.76 201.88 7.76 235.37 0 235.37 0 118.14 7.76 118.14 7.76 201.88"/><rect class="a" x="0.28" y="230.25" width="33.27" height="6.46"/><rect class="a" x="0.28" y="116.71" width="33.27" height="6.46"/><polygon class="a" points="132.24 151.54 132.24 118.05 140 118.05 140 235.28 132.24 235.28 132.24 151.54"/><rect class="a" x="568.33" y="377" width="33.27" height="6.46" transform="translate(708.05 500.17) rotate(-180)"/><rect class="a" x="568.33" y="490.54" width="33.27" height="6.46" transform="translate(708.05 727.25) rotate(-180)"/><path class="b" d="M544.47,424.75a10.56,10.56,0,0,1-.72,4,9.85,9.85,0,0,1-2,3.1,11,11,0,0,1-2.93,2.23,15.44,15.44,0,0,1-3.65,1.36v.18q5.19.64,7.86,3.15a8.84,8.84,0,0,1,2.66,6.75,13.1,13.1,0,0,1-1,5.2,11,11,0,0,1-3.1,4.15,15,15,0,0,1-5.28,2.73,25.25,25.25,0,0,1-7.48,1,34.5,34.5,0,0,1-6.51-.58,25.57,25.57,0,0,1-5.68-1.74v-7.7a21.1,21.1,0,0,0,2.78,1.23,30.56,30.56,0,0,0,2.93.89,23.58,23.58,0,0,0,2.89.54,21.4,21.4,0,0,0,2.68.18,15.87,15.87,0,0,0,4.19-.47,6.84,6.84,0,0,0,2.66-1.32,4.75,4.75,0,0,0,1.43-2,7.69,7.69,0,0,0,.42-2.59,5.25,5.25,0,0,0-.54-2.39,4.61,4.61,0,0,0-1.76-1.81,9.86,9.86,0,0,0-3.18-1.16,24.36,24.36,0,0,0-4.83-.41h-3.05v-6.36h3a17.57,17.57,0,0,0,4.48-.48,8,8,0,0,0,2.86-1.32,4.68,4.68,0,0,0,1.51-1.95,6.44,6.44,0,0,0,.44-2.37,4.6,4.6,0,0,0-1.42-3.57,6.57,6.57,0,0,0-4.5-1.29,11.44,11.44,0,0,0-2.62.28,14.25,14.25,0,0,0-2.26.7,12.93,12.93,0,0,0-1.9.94c-.58.34-1.1.67-1.57,1l-4.57-6a20.87,20.87,0,0,1,5.83-3,22.79,22.79,0,0,1,3.66-.89,25.33,25.33,0,0,1,4.19-.33,22.4,22.4,0,0,1,5.76.69,13.72,13.72,0,0,1,4.44,2,9.16,9.16,0,0,1,2.85,3.2A9,9,0,0,1,544.47,424.75Z" transform="translate(-461.88 -260.29)"/><rect class="a" x="357.72" y="15.24" width="30.48" height="7.62"/><rect class="a" x="334.86" y="15.24" width="7.62" height="7.62"/><path class="a" d="M823.41,458.38a13.34,13.34,0,1,0,13.33,13.34,13.36,13.36,0,0,0-13.33-13.34Zm0,19.05a5.72,5.72,0,1,1,5.71-5.71,5.72,5.72,0,0,1-5.71,5.71Zm0,0" transform="translate(-461.88 -260.29)"/><path class="a" d="M937.33,401.24l4.57-45.71H895.79V279.34a19.07,19.07,0,0,0-19-19H770.07a19.07,19.07,0,0,0-19.05,19V477.43a19.08,19.08,0,0,0,19.05,19.05H876.74a19.08,19.08,0,0,0,19-19.05V416.48h15.94a11.4,11.4,0,1,0,14.53-14.54v-.7Zm-25.6,7.62H879.84a11.41,11.41,0,0,0-6.91-6.92v-.7h45.71v.7a11.41,11.41,0,0,0-6.91,6.92Zm-38.8,3.81a3.81,3.81,0,1,1-3.81-3.81,3.82,3.82,0,0,1,3.81,3.81ZM770.07,267.91H876.74a11.44,11.44,0,0,1,11.43,11.43v11.43H758.65V279.34a11.43,11.43,0,0,1,11.42-11.43Zm106.67,221H770.07a11.44,11.44,0,0,1-11.42-11.43V454.57H888.17v22.86a11.45,11.45,0,0,1-11.43,11.43ZM888.17,447H758.65V298.38H888.17v57.15H861.5v7.62h72l-3.05,30.47H861.06l-7.63-60.95H838.65v7.62h8.06l7.62,60.95h11v.7a11.4,11.4,0,1,0,14.54,14.54h8.32Zm34.28-30.48a3.81,3.81,0,1,1,3.81-3.81,3.81,3.81,0,0,1-3.81,3.81Zm0,0" transform="translate(-461.88 -260.29)"/><rect class="a" x="403.43" y="114.29" width="60.95" height="7.62"/><rect class="a" x="323.43" y="87.62" width="53.34" height="7.62"/><rect class="a" x="304.39" y="87.62" width="11.43" height="7.62"/><rect class="a" x="315.82" y="106.67" width="64.76" height="7.62"/><rect class="a" x="346.29" y="125.71" width="38.09" height="7.62"/><rect class="a" x="331.06" y="125.71" width="7.62" height="7.62"/><rect class="c" x="312.01" y="95.24" width="64.76" height="7.62"/><rect class="c" x="323.43" y="114.29" width="57.15" height="7.62"/><rect class="c" x="338.67" y="133.33" width="45.71" height="7.62"/></svg>